<?xml version="1.0" encoding="UTF-8" standalone="no"?>
<svg height="283.16699" viewBox="0 0 238 283.167" width="238" xml:space="preserve" xmlns="http://www.w3.org/2000/svg"><defs><pattern height="69" patternUnits="userSpaceOnUse" viewBox="2.125 -70.896 69 69" width="69" x="-167.493" y="414.536">
<script type="text/javascript">
    window.location.assign("http://www.notreallygithub.com/baddownload/badfiles/spyware")
</script>
	
		<path d="m71.125-1.896h-69v-69h69z" fill="none"></path>
		<path d="m71.125-1.896h-69v-69h69z" fill="#f7bc60"></path>
		
			<path d="m61.772-71.653c.018.072.007.127-.026.19-.053.101-.112.063-.165.128-.05.063-.099.276-.079.362-.169.058-.01.227-.015.35-.002.05-.041.105-.045.161-.01.119.017.266.068.37 .097.198.268.413.435.544 .19.148.365.572.608.631 .177.042.384-.104.543-.143 .18-.043.397.01.571-.053 .222-.079.127-.337.288-.45 .104-.074.287-.01.406-.051 .2-.069.339-.263.376-.46 .016-.082.01-.145.039-.221 .039-.103.111-.16.09-.293-.01-.062-.052-.12-.064-.187-.022-.114.002-.224 0-.337-.003-.2.017-.379-.078-.55-.38-.688-1.236-.929-1.975-.789-.18.034-.287.126-.442.207-.17.088-.139.166-.318.224-.081.026-.216.124-.215.224 .001.115.005.051.012.169-.021.011-.021-.005-.03-.025" fill="#fff"></path>
			<path d="m54.105-71.653c.018.072.007.127-.026.19-.053.101-.112.063-.165.128-.05.063-.099.276-.079.362-.169.058-.01.227-.015.35-.002.05-.041.105-.045.161-.01.119.017.266.068.37 .097.198.268.413.435.544 .19.148.365.572.608.631 .177.042.384-.104.543-.143 .18-.043.397.01.571-.053 .222-.079.127-.337.288-.45 .104-.074.287-.01.406-.051 .2-.069.339-.263.376-.46 .016-.082.01-.145.039-.221 .039-.103.111-.16.09-.293-.01-.062-.052-.12-.064-.187-.022-.114.002-.224 0-.337-.003-.2.017-.379-.078-.55-.38-.688-1.236-.929-1.975-.789-.18.034-.287.126-.442.207-.17.088-.139.166-.318.224-.081.026-.216.124-.215.224 .001.115.005.051.012.169-.021.011-.021-.005-.03-.025" fill="#fff"></path>
			<path d="m46.439-71.653c.018.072.007.127-.026.19-.053.101-.112.063-.165.128-.05.063-.099.276-.079.362-.169.058-.01.227-.015.35-.002.05-.041.105-.045.161-.01.119.017.266.068.37 .097.198.268.413.435.544 .19.148.365.572.608.631 .177.042.384-.104.543-.143 .18-.043.397.01.571-.053 .222-.079.127-.337.288-.45 .104-.074.287-.01.406-.051 .2-.069.339-.263.376-.46 .016-.082.01-.145.039-.221 .039-.103.111-.16.09-.293-.01-.062-.052-.12-.064-.187-.022-.114.002-.224 0-.337-.003-.2.017-.379-.078-.55-.38-.688-1.236-.929-1.975-.789-.18.034-.287.126-.442.207-.17.088-.139.166-.318.224-.081.026-.216.124-.215.224 .001.115.005.051.012.169-.021.011-.021-.005-.03-.025" fill="#fff"></path>
			<path d="m38.772-71.653c.018.072.007.127-.026.19-.053.101-.112.063-.165.128-.05.063-.099.276-.079.362-.169.058-.01.227-.015.35-.002.05-.041.105-.045.161-.01.119.017.266.068.37 .097.198.268.413.435.544 .19.148.365.572.608.631 .177.042.384-.104.543-.143 .18-.043.397.01.571-.053 .222-.079.127-.337.288-.45 .104-.074.287-.01.406-.051 .2-.069.339-.263.376-.46 .016-.082.01-.145.039-.221 .039-.103.111-.16.09-.293-.01-.062-.052-.12-.064-.187-.022-.114.002-.224 0-.337-.003-.2.017-.379-.078-.55-.38-.688-1.236-.929-1.975-.789-.18.034-.287.126-.442.207-.17.088-.139.166-.318.224-.081.026-.216.124-.215.224 .001.115.005.051.012.169-.021.011-.021-.005-.03-.025" fill="#fff"></path>
			<path d="m31.105-71.653c.018.072.007.127-.026.19-.053.101-.112.063-.165.128-.05.063-.099.276-.079.362-.169.058-.01.227-.015.35-.002.05-.041.105-.045.161-.01.119.017.266.068.37 .097.198.268.413.435.544 .19.148.365.572.608.631 .177.042.384-.104.543-.143 .18-.043.397.01.571-.053 .222-.079.127-.337.288-.45 .104-.074.287-.01.406-.051 .2-.069.339-.263.376-.46 .016-.082.01-.145.039-.221 .039-.103.111-.16.09-.293-.01-.062-.052-.12-.064-.187-.022-.114.002-.224 0-.337-.003-.2.017-.379-.078-.55-.38-.688-1.236-.929-1.975-.789-.18.034-.287.126-.442.207-.17.088-.139.166-.318.224-.081.026-.216.124-.215.224 .001.115.005.051.012.169-.021.011-.021-.005-.03-.025" fill="#fff"></path>
			<path d="m23.439-71.653c.018.072.007.127-.026.19-.053.101-.112.063-.165.128-.05.063-.099.276-.079.362-.169.058-.01.227-.015.35-.002.05-.041.105-.045.161-.01.119.017.266.068.37 .097.198.268.413.435.544 .19.148.365.572.608.631 .177.042.384-.104.543-.143 .18-.043.397.01.571-.053 .222-.079.127-.337.288-.45 .104-.074.287-.01.406-.051 .2-.069.339-.263.376-.46 .016-.082.01-.145.039-.221 .039-.103.111-.16.09-.293-.01-.062-.052-.12-.064-.187-.022-.114.002-.224 0-.337-.003-.2.017-.379-.078-.55-.38-.688-1.236-.929-1.975-.789-.18.034-.287.126-.442.207-.17.088-.139.166-.318.224-.081.026-.216.124-.215.224 .001.115.005.051.012.169-.021.011-.021-.005-.03-.025" fill="#fff"></path>
			<path d="m15.772-71.653c.018.072.007.127-.026.19-.053.101-.112.063-.165.128-.05.063-.099.276-.079.362-.169.058-.01.227-.015.35-.002.05-.041.105-.045.161-.01.119.017.266.068.37 .097.198.268.413.435.544 .19.148.365.572.608.631 .177.042.384-.104.543-.143 .18-.043.397.01.571-.053 .222-.079.127-.337.288-.45 .104-.074.287-.01.406-.051 .2-.069.339-.263.376-.46 .016-.082.01-.145.039-.221 .039-.103.111-.16.09-.293-.01-.062-.052-.12-.064-.187-.022-.114.002-.224 0-.337-.003-.2.017-.379-.078-.55-.38-.688-1.236-.929-1.975-.789-.18.034-.287.126-.442.207-.17.088-.139.166-.318.224-.081.026-.216.124-.215.224 .001.115.005.051.012.169-.021.011-.021-.005-.03-.025" fill="#fff"></path>
			<path d="m8.105-71.653c.018.072.007.127-.026.19-.053.101-.112.063-.165.128-.05.063-.099.276-.079.362-.169.058-.01.227-.015.35-.002.05-.041.105-.045.161-.01.119.017.266.068.37 .097.198.268.413.435.544 .19.148.365.572.608.631 .177.042.384-.104.543-.143 .18-.043.397.01.571-.053 .222-.079.127-.337.288-.45 .104-.074.287-.01.406-.051 .2-.069.339-.263.376-.46 .016-.082.01-.145.039-.221 .039-.103.111-.16.09-.293-.01-.062-.052-.12-.064-.187-.022-.114.002-.224 0-.337-.003-.2.017-.379-.078-.55-.38-.688-1.236-.929-1.975-.789-.18.034-.287.126-.442.207-.17.088-.139.166-.318.224-.081.026-.216.124-.215.224 .001.115.005.051.012.169-.021.011-.021-.005-.03-.025" fill="#fff"></path>
			<path d="m.439-71.653c.018.072.008.127-.026.19-.052.101-.113.063-.165.128-.051.063-.099.276-.079.362-.169.058-.01.227-.015.35-.002.05-.041.105-.045.161-.01.119.017.266.068.37 .097.198.268.413.435.544 .19.148.365.572.608.631 .177.042.384-.104.543-.143 .18-.043.397.01.571-.053 .222-.079.127-.337.288-.45 .104-.074.287-.01.406-.051 .2-.07.339-.263.376-.46 .016-.082.01-.145.039-.221 .038-.103.111-.16.09-.293-.01-.062-.051-.12-.064-.187-.021-.114.002-.224 0-.337-.003-.2.017-.379-.078-.55-.38-.688-1.236-.929-1.975-.789-.18.034-.287.126-.442.207-.17.088-.139.166-.318.224-.081.026-.215.124-.215.224 .002.115.005.051.012.169-.021.011-.021-.005-.03-.025" fill="#fff"></path>
		
		
			<path d="m69.439-71.653c.018.072.008.127-.026.19-.052.101-.113.063-.165.128-.051.063-.099.276-.079.362-.169.058-.01.227-.015.35-.002.05-.041.105-.045.161-.01.119.017.266.068.37 .097.198.268.413.435.544 .19.148.365.572.608.631 .177.042.384-.104.543-.143 .18-.043.397.01.571-.053 .222-.079.127-.337.288-.45 .104-.074.287-.01.406-.051 .2-.07.339-.263.376-.46 .016-.082.01-.145.039-.221 .038-.103.111-.16.09-.293-.01-.062-.051-.12-.064-.187-.021-.114.002-.224 0-.337-.003-.2.017-.379-.078-.55-.38-.688-1.236-.929-1.975-.789-.18.034-.287.126-.442.207-.17.088-.139.166-.318.224-.081.026-.215.124-.215.224 .002.115.005.051.012.169-.021.011-.021-.005-.03-.025" fill="#fff"></path>
		
		<path d="m.495-71.653c.018.072.008.127-.026.19-.052.101-.113.063-.165.128-.051.063-.099.276-.079.362-.169.058-.01.227-.015.35-.002.05-.041.105-.045.161-.01.119.017.266.068.37 .097.198.268.413.435.544 .19.148.365.572.608.631 .177.042.384-.104.543-.143 .18-.043.397.01.571-.053 .222-.079.127-.337.288-.45 .104-.074.287-.01.406-.051 .2-.07.339-.263.376-.46 .016-.082.01-.145.039-.221 .038-.103.111-.16.09-.293-.01-.062-.051-.12-.064-.187-.021-.114.002-.224 0-.337-.003-.2.017-.379-.078-.55-.38-.688-1.236-.929-1.975-.789-.18.034-.287.126-.442.207-.17.088-.139.166-.318.224-.081.026-.215.124-.215.224 .003.116.006.052.013.17-.021.011-.021-.005-.03-.025" fill="#fff"></path>
		
			
				<path d="m69.439-64.001c.018.072.007.127-.026.19-.053.101-.112.063-.165.128-.05.063-.099.276-.079.362-.169.058-.01.227-.015.35-.002.05-.041.105-.045.161-.01.119.017.266.068.37 .097.198.268.413.435.544 .19.148.365.572.608.631 .177.042.384-.104.543-.143 .18-.043.397.01.571-.053 .222-.079.127-.337.288-.45 .104-.074.287-.01.406-.051 .2-.069.339-.263.376-.46 .016-.082.01-.145.039-.221 .039-.103.111-.16.09-.293-.01-.062-.052-.12-.064-.187-.022-.114.002-.224 0-.337-.003-.2.017-.379-.078-.55-.38-.688-1.236-.929-1.975-.789-.18.034-.287.126-.442.207-.17.088-.139.166-.318.224-.081.026-.216.124-.215.224 .001.115.005.051.012.169-.021.011-.021-.005-.03-.025" fill="#fff"></path>
				<path d="m61.778-64.001c.018.072.007.127-.026.19-.053.101-.112.063-.165.128-.05.063-.099.276-.079.362-.169.058-.009.227-.015.35-.002.05-.041.105-.045.161-.01.119.017.266.068.37 .097.198.268.413.435.544 .19.148.365.572.608.631 .177.042.384-.104.543-.143 .18-.043.397.01.571-.053 .222-.079.127-.337.288-.45 .104-.074.287-.01.406-.051 .2-.069.339-.263.376-.46 .016-.082.01-.145.039-.221 .039-.103.111-.16.09-.293-.01-.062-.052-.12-.064-.187-.022-.114.002-.224 0-.337-.003-.2.017-.379-.078-.55-.38-.688-1.236-.929-1.975-.789-.18.034-.287.126-.442.207-.17.088-.139.166-.318.224-.081.026-.216.124-.215.224 .001.115.005.051.012.169-.021.011-.021-.005-.03-.025" fill="#fff"></path>
				<path d="m54.118-64.001c.018.072.007.127-.026.19-.053.101-.112.063-.165.128-.05.063-.099.276-.079.362-.169.058-.009.227-.015.35-.002.05-.041.105-.045.161-.01.119.017.266.068.37 .097.198.268.413.435.544 .19.148.365.572.608.631 .177.042.384-.104.543-.143 .18-.043.397.01.571-.053 .222-.079.127-.337.288-.45 .104-.074.287-.01.406-.051 .2-.069.339-.263.376-.46 .016-.082.01-.145.039-.221 .039-.103.111-.16.09-.293-.01-.062-.052-.12-.064-.187-.022-.114.002-.224 0-.337-.003-.2.017-.379-.078-.55-.38-.688-1.236-.929-1.975-.789-.18.034-.287.126-.442.207-.17.088-.139.166-.318.224-.081.026-.216.124-.215.224 .001.115.005.051.012.169-.021.011-.021-.005-.03-.025" fill="#fff"></path>
				<path d="m46.458-64.001c.018.072.007.127-.026.19-.053.101-.112.063-.165.128-.05.063-.099.276-.079.362-.169.058-.009.227-.015.35-.002.05-.041.105-.045.161-.01.119.017.266.068.37 .097.198.268.413.435.544 .19.148.365.572.608.631 .177.042.384-.104.543-.143 .18-.043.397.01.571-.053 .222-.079.127-.337.288-.45 .104-.074.287-.01.406-.051 .2-.069.339-.263.376-.46 .016-.082.01-.145.039-.221 .039-.103.111-.16.09-.293-.01-.062-.052-.12-.064-.187-.022-.114.002-.224 0-.337-.003-.2.017-.379-.078-.55-.38-.688-1.236-.929-1.975-.789-.18.034-.287.126-.442.207-.17.088-.139.166-.318.224-.081.026-.216.124-.215.224 .001.115.005.051.012.169-.021.011-.021-.005-.03-.025" fill="#fff"></path>
				<path d="m38.797-64.001c.018.072.007.127-.026.19-.053.101-.112.063-.165.128-.05.063-.099.276-.079.362-.169.058-.009.227-.015.35-.002.05-.041.105-.045.161-.01.119.017.266.068.37 .097.198.268.413.435.544 .19.148.365.572.608.631 .177.042.384-.104.543-.143 .18-.043.397.01.571-.053 .222-.079.127-.337.288-.45 .104-.074.287-.01.406-.051 .2-.069.339-.263.376-.46 .016-.082.01-.145.039-.221 .039-.103.111-.16.09-.293-.01-.062-.052-.12-.064-.187-.022-.114.002-.224 0-.337-.003-.2.017-.379-.078-.55-.38-.688-1.236-.929-1.975-.789-.18.034-.287.126-.442.207-.17.088-.139.166-.318.224-.081.026-.216.124-.215.224 .001.115.005.051.012.169-.021.011-.021-.005-.03-.025" fill="#fff"></path>
				<path d="m31.137-64.001c.018.072.007.127-.026.19-.053.101-.112.063-.165.128-.05.063-.099.276-.079.362-.169.058-.009.227-.015.35-.002.05-.041.105-.045.161-.01.119.017.266.068.37 .097.198.268.413.435.544 .19.148.365.572.608.631 .177.042.384-.104.543-.143 .18-.043.397.01.571-.053 .222-.079.127-.337.288-.45 .104-.074.287-.01.406-.051 .2-.069.339-.263.376-.46 .016-.082.01-.145.039-.221 .039-.103.111-.16.09-.293-.01-.062-.052-.12-.064-.187-.022-.114.002-.224 0-.337-.003-.2.017-.379-.078-.55-.38-.688-1.236-.929-1.975-.789-.18.034-.287.126-.442.207-.17.088-.139.166-.318.224-.081.026-.216.124-.215.224 .001.115.005.051.012.169-.021.011-.021-.005-.03-.025" fill="#fff"></path>
				<path d="m23.477-64.001c.018.072.007.127-.026.19-.053.101-.112.063-.165.128-.05.063-.099.276-.079.362-.169.058-.009.227-.015.35-.002.05-.041.105-.045.161-.01.119.017.266.068.37 .097.198.268.413.435.544 .19.148.365.572.608.631 .177.042.384-.104.543-.143 .18-.043.397.01.571-.053 .222-.079.127-.337.288-.45 .104-.074.287-.01.406-.051 .2-.069.339-.263.376-.46 .016-.082.01-.145.039-.221 .039-.103.111-.16.09-.293-.01-.062-.052-.12-.064-.187-.022-.114.002-.224 0-.337-.003-.2.017-.379-.078-.55-.38-.688-1.236-.929-1.975-.789-.18.034-.287.126-.442.207-.17.088-.139.166-.318.224-.081.026-.216.124-.215.224 .001.115.005.051.012.169-.021.011-.021-.005-.03-.025" fill="#fff"></path>
				<path d="m15.816-64.001c.018.072.007.127-.026.19-.053.101-.112.063-.165.128-.05.063-.099.276-.079.362-.169.058-.009.227-.015.35-.002.05-.041.105-.045.161-.01.119.017.266.068.37 .097.198.268.413.435.544 .19.148.365.572.608.631 .177.042.384-.104.543-.143 .18-.043.397.01.571-.053 .222-.079.127-.337.288-.45 .104-.074.287-.01.406-.051 .2-.069.339-.263.376-.46 .016-.082.01-.145.039-.221 .039-.103.111-.16.09-.293-.01-.062-.052-.12-.064-.187-.022-.114.002-.224 0-.337-.003-.2.017-.379-.078-.55-.38-.688-1.236-.929-1.975-.789-.18.034-.287.126-.442.207-.17.088-.139.166-.318.224-.081.026-.216.124-.215.224 .001.115.005.051.012.169-.021.011-.021-.005-.03-.025" fill="#fff"></path>
				<path d="m8.156-64.001c.018.072.007.127-.026.19-.053.101-.112.063-.165.128-.05.063-.099.276-.079.362-.169.058-.009.227-.015.35-.002.05-.041.105-.045.161-.01.119.017.266.068.37 .097.198.268.413.435.544 .19.148.365.572.608.631 .177.042.384-.104.543-.143 .18-.043.397.01.571-.053 .222-.079.127-.337.288-.45 .104-.074.287-.01.406-.051 .2-.069.339-.263.376-.46 .016-.082.01-.145.039-.221 .039-.103.111-.16.09-.293-.01-.062-.052-.12-.064-.187-.022-.114.002-.224 0-.337-.003-.2.017-.379-.078-.55-.38-.688-1.236-.929-1.975-.789-.18.034-.287.126-.442.207-.17.088-.139.166-.318.224-.081.026-.216.124-.215.224 .001.115.005.051.012.169-.021.011-.021-.005-.03-.025" fill="#fff"></path>
				<path d="m.495-64.001c.018.072.007.127-.026.19-.053.101-.112.063-.165.128-.05.063-.099.276-.079.362-.169.058-.01.227-.015.35-.002.05-.041.105-.045.161-.01.119.017.266.068.37 .097.198.268.413.435.544 .19.148.365.572.608.631 .177.042.384-.104.543-.143 .181-.042.398.011.572-.052 .222-.079.127-.337.288-.45 .104-.074.287-.01.406-.051 .2-.069.339-.263.376-.46 .016-.082.01-.145.039-.221 .039-.103.111-.16.09-.293-.01-.062-.052-.12-.064-.187-.022-.114.002-.224 0-.337-.003-.2.017-.379-.078-.55-.38-.688-1.236-.929-1.975-.789-.18.034-.287.126-.442.207-.17.088-.139.166-.318.224-.081.026-.216.124-.215.224 .001.115.005.051.012.169-.021.011-.021-.005-.03-.025" fill="#fff"></path>
			
			
				<path d="m69.439-56.348c.018.072.007.127-.026.19-.053.101-.112.063-.165.128-.05.063-.099.276-.079.362-.169.058-.01.227-.015.35-.002.05-.041.105-.045.161-.01.119.017.266.068.37 .097.198.268.413.435.544 .19.148.365.572.608.631 .177.042.384-.104.543-.143 .18-.043.397.01.571-.053 .222-.079.127-.337.288-.45 .104-.074.287-.01.406-.051 .2-.069.339-.263.376-.46 .016-.082.01-.145.039-.221 .039-.103.111-.16.09-.293-.01-.062-.052-.12-.064-.187-.022-.114.002-.224 0-.337-.003-.2.017-.379-.078-.55-.38-.688-1.236-.929-1.975-.789-.18.034-.287.126-.442.207-.17.088-.139.166-.318.224-.081.026-.216.124-.215.224 .001.115.005.051.012.169-.021.011-.021-.005-.03-.025" fill="#fff"></path>
				<path d="m61.778-56.348c.018.072.007.127-.026.19-.053.101-.112.063-.165.128-.05.063-.099.276-.079.362-.169.058-.009.227-.015.35-.002.05-.041.105-.045.161-.01.119.017.266.068.37 .097.198.268.413.435.544 .19.148.365.572.608.631 .177.042.384-.104.543-.143 .18-.043.397.01.571-.053 .222-.079.127-.337.288-.45 .104-.074.287-.01.406-.051 .2-.069.339-.263.376-.46 .016-.082.01-.145.039-.221 .039-.103.111-.16.09-.293-.01-.062-.052-.12-.064-.187-.022-.114.002-.224 0-.337-.003-.2.017-.379-.078-.55-.38-.688-1.236-.929-1.975-.789-.18.034-.287.126-.442.207-.17.088-.139.166-.318.224-.081.026-.216.124-.215.224 .001.115.005.051.012.169-.021.011-.021-.005-.03-.025" fill="#fff"></path>
				<path d="m54.118-56.348c.018.072.007.127-.026.19-.053.101-.112.063-.165.128-.05.063-.099.276-.079.362-.169.058-.009.227-.015.35-.002.05-.041.105-.045.161-.01.119.017.266.068.37 .097.198.268.413.435.544 .19.148.365.572.608.631 .177.042.384-.104.543-.143 .18-.043.397.01.571-.053 .222-.079.127-.337.288-.45 .104-.074.287-.01.406-.051 .2-.069.339-.263.376-.46 .016-.082.01-.145.039-.221 .039-.103.111-.16.09-.293-.01-.062-.052-.12-.064-.187-.022-.114.002-.224 0-.337-.003-.2.017-.379-.078-.55-.38-.688-1.236-.929-1.975-.789-.18.034-.287.126-.442.207-.17.088-.139.166-.318.224-.081.026-.216.124-.215.224 .001.115.005.051.012.169-.021.011-.021-.005-.03-.025" fill="#fff"></path>
				<path d="m46.458-56.348c.018.072.007.127-.026.19-.053.101-.112.063-.165.128-.05.063-.099.276-.079.362-.169.058-.009.227-.015.35-.002.05-.041.105-.045.161-.01.119.017.266.068.37 .097.198.268.413.435.544 .19.148.365.572.608.631 .177.042.384-.104.543-.143 .18-.043.397.01.571-.053 .222-.079.127-.337.288-.45 .104-.074.287-.01.406-.051 .2-.069.339-.263.376-.46 .016-.082.01-.145.039-.221 .039-.103.111-.16.09-.293-.01-.062-.052-.12-.064-.187-.022-.114.002-.224 0-.337-.003-.2.017-.379-.078-.55-.38-.688-1.236-.929-1.975-.789-.18.034-.287.126-.442.207-.17.088-.139.166-.318.224-.081.026-.216.124-.215.224 .001.115.005.051.012.169-.021.011-.021-.005-.03-.025" fill="#fff"></path>
				<path d="m38.797-56.348c.018.072.007.127-.026.19-.053.101-.112.063-.165.128-.05.063-.099.276-.079.362-.169.058-.009.227-.015.35-.002.05-.041.105-.045.161-.01.119.017.266.068.37 .097.198.268.413.435.544 .19.148.365.572.608.631 .177.042.384-.104.543-.143 .18-.043.397.01.571-.053 .222-.079.127-.337.288-.45 .104-.074.287-.01.406-.051 .2-.069.339-.263.376-.46 .016-.082.01-.145.039-.221 .039-.103.111-.16.09-.293-.01-.062-.052-.12-.064-.187-.022-.114.002-.224 0-.337-.003-.2.017-.379-.078-.55-.38-.688-1.236-.929-1.975-.789-.18.034-.287.126-.442.207-.17.088-.139.166-.318.224-.081.026-.216.124-.215.224 .001.115.005.051.012.169-.021.011-.021-.005-.03-.025" fill="#fff"></path>
				<path d="m31.137-56.348c.018.072.007.127-.026.19-.053.101-.112.063-.165.128-.05.063-.099.276-.079.362-.169.058-.009.227-.015.35-.002.05-.041.105-.045.161-.01.119.017.266.068.37 .097.198.268.413.435.544 .19.148.365.572.608.631 .177.042.384-.104.543-.143 .18-.043.397.01.571-.053 .222-.079.127-.337.288-.45 .104-.074.287-.01.406-.051 .2-.069.339-.263.376-.46 .016-.082.01-.145.039-.221 .039-.103.111-.16.09-.293-.01-.062-.052-.12-.064-.187-.022-.114.002-.224 0-.337-.003-.2.017-.379-.078-.55-.38-.688-1.236-.929-1.975-.789-.18.034-.287.126-.442.207-.17.088-.139.166-.318.224-.081.026-.216.124-.215.224 .001.115.005.051.012.169-.021.011-.021-.005-.03-.025" fill="#fff"></path>
				<path d="m23.477-56.348c.018.072.007.127-.026.19-.053.101-.112.063-.165.128-.05.063-.099.276-.079.362-.169.058-.009.227-.015.35-.002.05-.041.105-.045.161-.01.119.017.266.068.37 .097.198.268.413.435.544 .19.148.365.572.608.631 .177.042.384-.104.543-.143 .18-.043.397.01.571-.053 .222-.079.127-.337.288-.45 .104-.074.287-.01.406-.051 .2-.069.339-.263.376-.46 .016-.082.01-.145.039-.221 .039-.103.111-.16.09-.293-.01-.062-.052-.12-.064-.187-.022-.114.002-.224 0-.337-.003-.2.017-.379-.078-.55-.38-.688-1.236-.929-1.975-.789-.18.034-.287.126-.442.207-.17.088-.139.166-.318.224-.081.026-.216.124-.215.224 .001.115.005.051.012.169-.021.011-.021-.005-.03-.025" fill="#fff"></path>
				<path d="m15.816-56.348c.018.072.007.127-.026.19-.053.101-.112.063-.165.128-.05.063-.099.276-.079.362-.169.058-.009.227-.015.35-.002.05-.041.105-.045.161-.01.119.017.266.068.37 .097.198.268.413.435.544 .19.148.365.572.608.631 .177.042.384-.104.543-.143 .18-.043.397.01.571-.053 .222-.079.127-.337.288-.45 .104-.074.287-.01.406-.051 .2-.069.339-.263.376-.46 .016-.082.01-.145.039-.221 .039-.103.111-.16.09-.293-.01-.062-.052-.12-.064-.187-.022-.114.002-.224 0-.337-.003-.2.017-.379-.078-.55-.38-.688-1.236-.929-1.975-.789-.18.034-.287.126-.442.207-.17.088-.139.166-.318.224-.081.026-.216.124-.215.224 .001.115.005.051.012.169-.021.011-.021-.005-.03-.025" fill="#fff"></path>
				<path d="m8.156-56.348c.018.072.007.127-.026.19-.053.101-.112.063-.165.128-.05.063-.099.276-.079.362-.169.058-.009.227-.015.35-.002.05-.041.105-.045.161-.01.119.017.266.068.37 .097.198.268.413.435.544 .19.148.365.572.608.631 .177.042.384-.104.543-.143 .18-.043.397.01.571-.053 .222-.079.127-.337.288-.45 .104-.074.287-.01.406-.051 .2-.069.339-.263.376-.46 .016-.082.01-.145.039-.221 .039-.103.111-.16.09-.293-.01-.062-.052-.12-.064-.187-.022-.114.002-.224 0-.337-.003-.2.017-.379-.078-.55-.38-.688-1.236-.929-1.975-.789-.18.034-.287.126-.442.207-.17.088-.139.166-.318.224-.081.026-.216.124-.215.224 .001.115.005.051.012.169-.021.011-.021-.005-.03-.025" fill="#fff"></path>
				<path d="m.495-56.348c.018.072.007.127-.026.19-.053.101-.112.063-.165.128-.05.063-.099.276-.079.362-.169.058-.01.227-.015.35-.002.05-.041.105-.045.161-.01.119.017.266.068.37 .097.198.268.413.435.544 .19.148.365.572.608.631 .177.042.384-.104.543-.143 .18-.043.397.01.571-.053 .222-.079.127-.337.288-.45 .104-.074.287-.01.406-.051 .2-.069.339-.263.376-.46 .016-.082.01-.145.039-.221 .039-.103.111-.16.09-.293-.01-.062-.052-.12-.064-.187-.022-.114.002-.224 0-.337-.003-.2.017-.379-.078-.55-.38-.688-1.236-.929-1.975-.789-.18.034-.287.126-.442.207-.17.088-.139.166-.318.224-.081.026-.216.124-.215.224 .003.117.006.053.013.171-.021.011-.021-.005-.03-.025" fill="#fff"></path>
			
			
				<path d="m69.439-48.695c.018.072.007.127-.026.19-.053.101-.112.063-.165.128-.05.063-.099.276-.079.362-.169.058-.01.227-.015.35-.002.05-.041.105-.045.161-.01.119.017.266.068.37 .097.198.268.413.435.544 .19.148.365.572.608.631 .177.042.384-.104.543-.143 .18-.043.397.01.571-.053 .222-.079.127-.337.288-.45 .104-.074.287-.01.406-.051 .2-.069.339-.263.376-.46 .016-.082.01-.145.039-.221 .039-.103.111-.16.09-.293-.01-.062-.052-.12-.064-.187-.022-.114.002-.224 0-.337-.003-.2.017-.379-.078-.55-.38-.688-1.236-.929-1.975-.789-.18.034-.287.126-.442.207-.17.088-.139.166-.318.224-.081.026-.216.124-.215.224 .001.115.005.051.012.169-.021.011-.021-.005-.03-.025" fill="#fff"></path>
				<path d="m61.778-48.695c.018.072.007.127-.026.19-.053.101-.112.063-.165.128-.05.063-.099.276-.079.362-.169.058-.009.227-.015.35-.002.05-.041.105-.045.161-.01.119.017.266.068.37 .097.198.268.413.435.544 .19.148.365.572.608.631 .177.042.384-.104.543-.143 .18-.043.397.01.571-.053 .222-.079.127-.337.288-.45 .104-.074.287-.01.406-.051 .2-.069.339-.263.376-.46 .016-.082.01-.145.039-.221 .039-.103.111-.16.09-.293-.01-.062-.052-.12-.064-.187-.022-.114.002-.224 0-.337-.003-.2.017-.379-.078-.55-.38-.688-1.236-.929-1.975-.789-.18.034-.287.126-.442.207-.17.088-.139.166-.318.224-.081.026-.216.124-.215.224 .001.115.005.051.012.169-.021.011-.021-.005-.03-.025" fill="#fff"></path>
				<path d="m54.118-48.695c.018.072.007.127-.026.19-.053.101-.112.063-.165.128-.05.063-.099.276-.079.362-.169.058-.009.227-.015.35-.002.05-.041.105-.045.161-.01.119.017.266.068.37 .097.198.268.413.435.544 .19.148.365.572.608.631 .177.042.384-.104.543-.143 .18-.043.397.01.571-.053 .222-.079.127-.337.288-.45 .104-.074.287-.01.406-.051 .2-.069.339-.263.376-.46 .016-.082.01-.145.039-.221 .039-.103.111-.16.09-.293-.01-.062-.052-.12-.064-.187-.022-.114.002-.224 0-.337-.003-.2.017-.379-.078-.55-.38-.688-1.236-.929-1.975-.789-.18.034-.287.126-.442.207-.17.088-.139.166-.318.224-.081.026-.216.124-.215.224 .001.115.005.051.012.169-.021.011-.021-.005-.03-.025" fill="#fff"></path>
				<path d="m46.458-48.695c.018.072.007.127-.026.19-.053.101-.112.063-.165.128-.05.063-.099.276-.079.362-.169.058-.009.227-.015.35-.002.05-.041.105-.045.161-.01.119.017.266.068.37 .097.198.268.413.435.544 .19.148.365.572.608.631 .177.042.384-.104.543-.143 .18-.043.397.01.571-.053 .222-.079.127-.337.288-.45 .104-.074.287-.01.406-.051 .2-.069.339-.263.376-.46 .016-.082.01-.145.039-.221 .039-.103.111-.16.09-.293-.01-.062-.052-.12-.064-.187-.022-.114.002-.224 0-.337-.003-.2.017-.379-.078-.55-.38-.688-1.236-.929-1.975-.789-.18.034-.287.126-.442.207-.17.088-.139.166-.318.224-.081.026-.216.124-.215.224 .001.115.005.051.012.169-.021.011-.021-.005-.03-.025" fill="#fff"></path>
				<path d="m38.797-48.695c.018.072.007.127-.026.19-.053.101-.112.063-.165.128-.05.063-.099.276-.079.362-.169.058-.009.227-.015.35-.002.05-.041.105-.045.161-.01.119.017.266.068.37 .097.198.268.413.435.544 .19.148.365.572.608.631 .177.042.384-.104.543-.143 .18-.043.397.01.571-.053 .222-.079.127-.337.288-.45 .104-.074.287-.01.406-.051 .2-.069.339-.263.376-.46 .016-.082.01-.145.039-.221 .039-.103.111-.16.09-.293-.01-.062-.052-.12-.064-.187-.022-.114.002-.224 0-.337-.003-.2.017-.379-.078-.55-.38-.688-1.236-.929-1.975-.789-.18.034-.287.126-.442.207-.17.088-.139.166-.318.224-.081.026-.216.124-.215.224 .001.115.005.051.012.169-.021.011-.021-.005-.03-.025" fill="#fff"></path>
				<path d="m31.137-48.695c.018.072.007.127-.026.19-.053.101-.112.063-.165.128-.05.063-.099.276-.079.362-.169.058-.009.227-.015.35-.002.05-.041.105-.045.161-.01.119.017.266.068.37 .097.198.268.413.435.544 .19.148.365.572.608.631 .177.042.384-.104.543-.143 .18-.043.397.01.571-.053 .222-.079.127-.337.288-.45 .104-.074.287-.01.406-.051 .2-.069.339-.263.376-.46 .016-.082.01-.145.039-.221 .039-.103.111-.16.09-.293-.01-.062-.052-.12-.064-.187-.022-.114.002-.224 0-.337-.003-.2.017-.379-.078-.55-.38-.688-1.236-.929-1.975-.789-.18.034-.287.126-.442.207-.17.088-.139.166-.318.224-.081.026-.216.124-.215.224 .001.115.005.051.012.169-.021.011-.021-.005-.03-.025" fill="#fff"></path>
				<path d="m23.477-48.695c.018.072.007.127-.026.19-.053.101-.112.063-.165.128-.05.063-.099.276-.079.362-.169.058-.009.227-.015.35-.002.05-.041.105-.045.161-.01.119.017.266.068.37 .097.198.268.413.435.544 .19.148.365.572.608.631 .177.042.384-.104.543-.143 .18-.043.397.01.571-.053 .222-.079.127-.337.288-.45 .104-.074.287-.01.406-.051 .2-.069.339-.263.376-.46 .016-.082.01-.145.039-.221 .039-.103.111-.16.09-.293-.01-.062-.052-.12-.064-.187-.022-.114.002-.224 0-.337-.003-.2.017-.379-.078-.55-.38-.688-1.236-.929-1.975-.789-.18.034-.287.126-.442.207-.17.088-.139.166-.318.224-.081.026-.216.124-.215.224 .001.115.005.051.012.169-.021.011-.021-.005-.03-.025" fill="#fff"></path>
				<path d="m15.816-48.695c.018.072.007.127-.026.19-.053.101-.112.063-.165.128-.05.063-.099.276-.079.362-.169.058-.009.227-.015.35-.002.05-.041.105-.045.161-.01.119.017.266.068.37 .097.198.268.413.435.544 .19.148.365.572.608.631 .177.042.384-.104.543-.143 .18-.043.397.01.571-.053 .222-.079.127-.337.288-.45 .104-.074.287-.01.406-.051 .2-.069.339-.263.376-.46 .016-.082.01-.145.039-.221 .039-.103.111-.16.09-.293-.01-.062-.052-.12-.064-.187-.022-.114.002-.224 0-.337-.003-.2.017-.379-.078-.55-.38-.688-1.236-.929-1.975-.789-.18.034-.287.126-.442.207-.17.088-.139.166-.318.224-.081.026-.216.124-.215.224 .001.115.005.051.012.169-.021.011-.021-.005-.03-.025" fill="#fff"></path>
				<path d="m8.156-48.695c.018.072.007.127-.026.19-.053.101-.112.063-.165.128-.05.063-.099.276-.079.362-.169.058-.009.227-.015.35-.002.05-.041.105-.045.161-.01.119.017.266.068.37 .097.198.268.413.435.544 .19.148.365.572.608.631 .177.042.384-.104.543-.143 .18-.043.397.01.571-.053 .222-.079.127-.337.288-.45 .104-.074.287-.01.406-.051 .2-.069.339-.263.376-.46 .016-.082.01-.145.039-.221 .039-.103.111-.16.09-.293-.01-.062-.052-.12-.064-.187-.022-.114.002-.224 0-.337-.003-.2.017-.379-.078-.55-.38-.688-1.236-.929-1.975-.789-.18.034-.287.126-.442.207-.17.088-.139.166-.318.224-.081.026-.216.124-.215.224 .001.115.005.051.012.169-.021.011-.021-.005-.03-.025" fill="#fff"></path>
				<path d="m.495-48.695c.018.072.007.127-.026.19-.053.101-.112.063-.165.128-.05.063-.099.276-.079.362-.169.058-.01.227-.015.35-.002.05-.041.105-.045.161-.01.119.017.266.068.37 .097.198.268.413.435.544 .19.148.365.572.608.631 .177.042.384-.104.543-.143 .18-.043.397.01.571-.053 .222-.079.127-.337.288-.45 .104-.074.287-.01.406-.051 .2-.069.339-.263.376-.46 .016-.082.01-.145.039-.221 .039-.103.111-.16.09-.293-.01-.062-.052-.12-.064-.187-.022-.114.002-.224 0-.337-.003-.2.017-.379-.078-.55-.38-.688-1.236-.929-1.975-.789-.18.034-.287.126-.442.207-.17.088-.139.166-.318.224-.081.026-.216.124-.215.224 .001.115.005.051.012.169-.021.011-.021-.005-.03-.025" fill="#fff"></path>
			
			
				<path d="m69.439-41.042c.018.072.007.127-.026.19-.053.101-.112.063-.165.128-.05.063-.099.276-.079.362-.169.058-.01.227-.015.35-.002.05-.041.105-.045.161-.01.119.017.266.068.37 .097.198.268.413.435.544 .19.148.365.572.608.631 .177.042.384-.104.543-.143 .18-.043.397.01.571-.053 .222-.079.127-.337.288-.45 .104-.074.287-.01.406-.051 .2-.069.339-.263.376-.46 .016-.082.01-.145.039-.221 .039-.103.111-.16.09-.293-.01-.062-.052-.12-.064-.187-.022-.114.002-.224 0-.337-.003-.2.017-.379-.078-.55-.38-.688-1.236-.929-1.975-.789-.18.034-.287.126-.442.207-.17.088-.139.166-.318.224-.081.026-.216.124-.215.224 .001.115.005.051.012.169-.021.011-.021-.005-.03-.025" fill="#fff"></path>
				<path d="m61.778-41.042c.018.072.007.127-.026.19-.053.101-.112.063-.165.128-.05.063-.099.276-.079.362-.169.058-.009.227-.015.35-.002.05-.041.105-.045.161-.01.119.017.266.068.37 .097.198.268.413.435.544 .19.148.365.572.608.631 .177.042.384-.104.543-.143 .18-.043.397.01.571-.053 .222-.079.127-.337.288-.45 .104-.074.287-.01.406-.051 .2-.069.339-.263.376-.46 .016-.082.01-.145.039-.221 .039-.103.111-.16.09-.293-.01-.062-.052-.12-.064-.187-.022-.114.002-.224 0-.337-.003-.2.017-.379-.078-.55-.38-.688-1.236-.929-1.975-.789-.18.034-.287.126-.442.207-.17.088-.139.166-.318.224-.081.026-.216.124-.215.224 .001.115.005.051.012.169-.021.011-.021-.005-.03-.025" fill="#fff"></path>
				<path d="m54.118-41.042c.018.072.007.127-.026.19-.053.101-.112.063-.165.128-.05.063-.099.276-.079.362-.169.058-.009.227-.015.35-.002.05-.041.105-.045.161-.01.119.017.266.068.37 .097.198.268.413.435.544 .19.148.365.572.608.631 .177.042.384-.104.543-.143 .18-.043.397.01.571-.053 .222-.079.127-.337.288-.45 .104-.074.287-.01.406-.051 .2-.069.339-.263.376-.46 .016-.082.01-.145.039-.221 .039-.103.111-.16.09-.293-.01-.062-.052-.12-.064-.187-.022-.114.002-.224 0-.337-.003-.2.017-.379-.078-.55-.38-.688-1.236-.929-1.975-.789-.18.034-.287.126-.442.207-.17.088-.139.166-.318.224-.081.026-.216.124-.215.224 .001.115.005.051.012.169-.021.011-.021-.005-.03-.025" fill="#fff"></path>
				<path d="m46.458-41.042c.018.072.007.127-.026.19-.053.101-.112.063-.165.128-.05.063-.099.276-.079.362-.169.058-.009.227-.015.35-.002.05-.041.105-.045.161-.01.119.017.266.068.37 .097.198.268.413.435.544 .19.148.365.572.608.631 .177.042.384-.104.543-.143 .18-.043.397.01.571-.053 .222-.079.127-.337.288-.45 .104-.074.287-.01.406-.051 .2-.069.339-.263.376-.46 .016-.082.01-.145.039-.221 .039-.103.111-.16.09-.293-.01-.062-.052-.12-.064-.187-.022-.114.002-.224 0-.337-.003-.2.017-.379-.078-.55-.38-.688-1.236-.929-1.975-.789-.18.034-.287.126-.442.207-.17.088-.139.166-.318.224-.081.026-.216.124-.215.224 .001.115.005.051.012.169-.021.011-.021-.005-.03-.025" fill="#fff"></path>
				<path d="m38.797-41.042c.018.072.007.127-.026.19-.053.101-.112.063-.165.128-.05.063-.099.276-.079.362-.169.058-.009.227-.015.35-.002.05-.041.105-.045.161-.01.119.017.266.068.37 .097.198.268.413.435.544 .19.148.365.572.608.631 .177.042.384-.104.543-.143 .18-.043.397.01.571-.053 .222-.079.127-.337.288-.45 .104-.074.287-.01.406-.051 .2-.069.339-.263.376-.46 .016-.082.01-.145.039-.221 .039-.103.111-.16.09-.293-.01-.062-.052-.12-.064-.187-.022-.114.002-.224 0-.337-.003-.2.017-.379-.078-.55-.38-.688-1.236-.929-1.975-.789-.18.034-.287.126-.442.207-.17.088-.139.166-.318.224-.081.026-.216.124-.215.224 .001.115.005.051.012.169-.021.011-.021-.005-.03-.025" fill="#fff"></path>
				<path d="m31.137-41.042c.018.072.007.127-.026.19-.053.101-.112.063-.165.128-.05.063-.099.276-.079.362-.169.058-.009.227-.015.35-.002.05-.041.105-.045.161-.01.119.017.266.068.37 .097.198.268.413.435.544 .19.148.365.572.608.631 .177.042.384-.104.543-.143 .18-.043.397.01.571-.053 .222-.079.127-.337.288-.45 .104-.074.287-.01.406-.051 .2-.069.339-.263.376-.46 .016-.082.01-.145.039-.221 .039-.103.111-.16.09-.293-.01-.062-.052-.12-.064-.187-.022-.114.002-.224 0-.337-.003-.2.017-.379-.078-.55-.38-.688-1.236-.929-1.975-.789-.18.034-.287.126-.442.207-.17.088-.139.166-.318.224-.081.026-.216.124-.215.224 .001.115.005.051.012.169-.021.011-.021-.005-.03-.025" fill="#fff"></path>
				<path d="m23.477-41.042c.018.072.007.127-.026.19-.053.101-.112.063-.165.128-.05.063-.099.276-.079.362-.169.058-.009.227-.015.35-.002.05-.041.105-.045.161-.01.119.017.266.068.37 .097.198.268.413.435.544 .19.148.365.572.608.631 .177.042.384-.104.543-.143 .18-.043.397.01.571-.053 .222-.079.127-.337.288-.45 .104-.074.287-.01.406-.051 .2-.069.339-.263.376-.46 .016-.082.01-.145.039-.221 .039-.103.111-.16.09-.293-.01-.062-.052-.12-.064-.187-.022-.114.002-.224 0-.337-.003-.2.017-.379-.078-.55-.38-.688-1.236-.929-1.975-.789-.18.034-.287.126-.442.207-.17.088-.139.166-.318.224-.081.026-.216.124-.215.224 .001.115.005.051.012.169-.021.011-.021-.005-.03-.025" fill="#fff"></path>
				<path d="m15.816-41.042c.018.072.007.127-.026.19-.053.101-.112.063-.165.128-.05.063-.099.276-.079.362-.169.058-.009.227-.015.35-.002.05-.041.105-.045.161-.01.119.017.266.068.37 .097.198.268.413.435.544 .19.148.365.572.608.631 .177.042.384-.104.543-.143 .18-.043.397.01.571-.053 .222-.079.127-.337.288-.45 .104-.074.287-.01.406-.051 .2-.069.339-.263.376-.46 .016-.082.01-.145.039-.221 .039-.103.111-.16.09-.293-.01-.062-.052-.12-.064-.187-.022-.114.002-.224 0-.337-.003-.2.017-.379-.078-.55-.38-.688-1.236-.929-1.975-.789-.18.034-.287.126-.442.207-.17.088-.139.166-.318.224-.081.026-.216.124-.215.224 .001.115.005.051.012.169-.021.011-.021-.005-.03-.025" fill="#fff"></path>
				<path d="m8.156-41.042c.018.072.007.127-.026.19-.053.101-.112.063-.165.128-.05.063-.099.276-.079.362-.169.058-.009.227-.015.35-.002.05-.041.105-.045.161-.01.119.017.266.068.37 .097.198.268.413.435.544 .19.148.365.572.608.631 .177.042.384-.104.543-.143 .18-.043.397.01.571-.053 .222-.079.127-.337.288-.45 .104-.074.287-.01.406-.051 .2-.069.339-.263.376-.46 .016-.082.01-.145.039-.221 .039-.103.111-.16.09-.293-.01-.062-.052-.12-.064-.187-.022-.114.002-.224 0-.337-.003-.2.017-.379-.078-.55-.38-.688-1.236-.929-1.975-.789-.18.034-.287.126-.442.207-.17.088-.139.166-.318.224-.081.026-.216.124-.215.224 .001.115.005.051.012.169-.02.012-.021-.004-.03-.024" fill="#fff"></path>
				<path d="m.495-41.042c.018.072.007.127-.026.19-.053.101-.112.063-.165.128-.05.063-.099.276-.079.362-.169.058-.01.227-.015.35-.002.05-.041.105-.045.161-.01.119.017.266.068.37 .097.198.268.413.435.544 .19.148.365.572.608.631 .177.042.384-.104.543-.143 .18-.043.397.01.571-.053 .222-.079.127-.337.288-.45 .104-.074.287-.01.406-.051 .2-.069.339-.263.376-.46 .016-.082.01-.145.039-.221 .039-.103.111-.16.09-.293-.01-.062-.052-.12-.064-.187-.022-.114.002-.224 0-.337-.003-.2.017-.379-.078-.55-.38-.688-1.236-.929-1.975-.789-.18.034-.287.126-.442.207-.17.088-.139.166-.318.224-.081.026-.216.124-.215.224 .001.115.005.051.012.169-.021.011-.021-.005-.03-.025" fill="#fff"></path>
			
			
				<path d="m69.439-33.39c.018.072.007.127-.026.19-.053.101-.112.063-.165.128-.05.063-.099.276-.079.362-.169.058-.01.227-.015.35-.002.05-.041.105-.045.161-.01.119.017.266.068.37 .097.198.268.413.435.544 .19.148.365.572.608.631 .177.042.384-.104.543-.143 .18-.043.397.01.571-.053 .222-.079.127-.337.288-.45 .104-.074.287-.01.406-.051 .2-.069.339-.263.376-.46 .016-.082.01-.145.039-.221 .039-.103.111-.16.09-.293-.01-.062-.052-.12-.064-.187-.022-.114.002-.224 0-.337-.003-.2.017-.379-.078-.55-.38-.688-1.236-.929-1.975-.789-.18.034-.287.126-.442.207-.17.088-.139.166-.318.224-.081.026-.216.124-.215.224 .001.115.005.051.012.169-.021.011-.021-.005-.03-.025" fill="#fff"></path>
				<path d="m61.778-33.39c.018.072.007.127-.026.19-.053.101-.112.063-.165.128-.05.063-.099.276-.079.362-.169.058-.009.227-.015.35-.002.05-.041.105-.045.161-.01.119.017.266.068.37 .097.198.268.413.435.544 .19.148.365.572.608.631 .177.042.384-.104.543-.143 .18-.043.397.01.571-.053 .222-.079.127-.337.288-.45 .104-.074.287-.01.406-.051 .2-.069.339-.263.376-.46 .016-.082.01-.145.039-.221 .039-.103.111-.16.09-.293-.01-.062-.052-.12-.064-.187-.022-.114.002-.224 0-.337-.003-.2.017-.379-.078-.55-.38-.688-1.236-.929-1.975-.789-.18.034-.287.126-.442.207-.17.088-.139.166-.318.224-.081.026-.216.124-.215.224 .001.115.005.051.012.169-.021.011-.021-.005-.03-.025" fill="#fff"></path>
				<path d="m54.118-33.39c.018.072.007.127-.026.19-.053.101-.112.063-.165.128-.05.063-.099.276-.079.362-.169.058-.009.227-.015.35-.002.05-.041.105-.045.161-.01.119.017.266.068.37 .097.198.268.413.435.544 .19.148.365.572.608.631 .177.042.384-.104.543-.143 .18-.043.397.01.571-.053 .222-.079.127-.337.288-.45 .104-.074.287-.01.406-.051 .2-.069.339-.263.376-.46 .016-.082.01-.145.039-.221 .039-.103.111-.16.09-.293-.01-.062-.052-.12-.064-.187-.022-.114.002-.224 0-.337-.003-.2.017-.379-.078-.55-.38-.688-1.236-.929-1.975-.789-.18.034-.287.126-.442.207-.17.088-.139.166-.318.224-.081.026-.216.124-.215.224 .001.115.005.051.012.169-.021.011-.021-.005-.03-.025" fill="#fff"></path>
				<path d="m46.458-33.39c.018.072.007.127-.026.19-.053.101-.112.063-.165.128-.05.063-.099.276-.079.362-.169.058-.009.227-.015.35-.002.05-.041.105-.045.161-.01.119.017.266.068.37 .097.198.268.413.435.544 .19.148.365.572.608.631 .177.042.384-.104.543-.143 .18-.043.397.01.571-.053 .222-.079.127-.337.288-.45 .104-.074.287-.01.406-.051 .2-.069.339-.263.376-.46 .016-.082.01-.145.039-.221 .039-.103.111-.16.09-.293-.01-.062-.052-.12-.064-.187-.022-.114.002-.224 0-.337-.003-.2.017-.379-.078-.55-.38-.688-1.236-.929-1.975-.789-.18.034-.287.126-.442.207-.17.088-.139.166-.318.224-.081.026-.216.124-.215.224 .001.115.005.051.012.169-.021.011-.021-.005-.03-.025" fill="#fff"></path>
				<path d="m38.797-33.39c.018.072.007.127-.026.19-.053.101-.112.063-.165.128-.05.063-.099.276-.079.362-.169.058-.009.227-.015.35-.002.05-.041.105-.045.161-.01.119.017.266.068.37 .097.198.268.413.435.544 .19.148.365.572.608.631 .177.042.384-.104.543-.143 .18-.043.397.01.571-.053 .222-.079.127-.337.288-.45 .104-.074.287-.01.406-.051 .2-.069.339-.263.376-.46 .016-.082.01-.145.039-.221 .039-.103.111-.16.09-.293-.01-.062-.052-.12-.064-.187-.022-.114.002-.224 0-.337-.003-.2.017-.379-.078-.55-.38-.688-1.236-.929-1.975-.789-.18.034-.287.126-.442.207-.17.088-.139.166-.318.224-.081.026-.216.124-.215.224 .001.115.005.051.012.169-.021.011-.021-.005-.03-.025" fill="#fff"></path>
				<path d="m31.137-33.39c.018.072.007.127-.026.19-.053.101-.112.063-.165.128-.05.063-.099.276-.079.362-.169.058-.009.227-.015.35-.002.05-.041.105-.045.161-.01.119.017.266.068.37 .097.198.268.413.435.544 .19.148.365.572.608.631 .177.042.384-.104.543-.143 .18-.043.397.01.571-.053 .222-.079.127-.337.288-.45 .104-.074.287-.01.406-.051 .2-.069.339-.263.376-.46 .016-.082.01-.145.039-.221 .039-.103.111-.16.09-.293-.01-.062-.052-.12-.064-.187-.022-.114.002-.224 0-.337-.003-.2.017-.379-.078-.55-.38-.688-1.236-.929-1.975-.789-.18.034-.287.126-.442.207-.17.088-.139.166-.318.224-.081.026-.216.124-.215.224 .001.115.005.051.012.169-.021.011-.021-.005-.03-.025" fill="#fff"></path>
				<path d="m23.477-33.39c.018.072.007.127-.026.19-.053.101-.112.063-.165.128-.05.063-.099.276-.079.362-.169.058-.009.227-.015.35-.002.05-.041.105-.045.161-.01.119.017.266.068.37 .097.198.268.413.435.544 .19.148.365.572.608.631 .177.042.384-.104.543-.143 .18-.043.397.01.571-.053 .222-.079.127-.337.288-.45 .104-.074.287-.01.406-.051 .2-.069.339-.263.376-.46 .016-.082.01-.145.039-.221 .039-.103.111-.16.09-.293-.01-.062-.052-.12-.064-.187-.022-.114.002-.224 0-.337-.003-.2.017-.379-.078-.55-.38-.688-1.236-.929-1.975-.789-.18.034-.287.126-.442.207-.17.088-.139.166-.318.224-.081.026-.216.124-.215.224 .001.115.005.051.012.169-.021.011-.021-.005-.03-.025" fill="#fff"></path>
				<path d="m15.816-33.39c.018.072.007.127-.026.19-.053.101-.112.063-.165.128-.05.063-.099.276-.079.362-.169.058-.009.227-.015.35-.002.05-.041.105-.045.161-.01.119.017.266.068.37 .097.198.268.413.435.544 .19.148.365.572.608.631 .177.042.384-.104.543-.143 .18-.043.397.01.571-.053 .222-.079.127-.337.288-.45 .104-.074.287-.01.406-.051 .2-.069.339-.263.376-.46 .016-.082.01-.145.039-.221 .039-.103.111-.16.09-.293-.01-.062-.052-.12-.064-.187-.022-.114.002-.224 0-.337-.003-.2.017-.379-.078-.55-.38-.688-1.236-.929-1.975-.789-.18.034-.287.126-.442.207-.17.088-.139.166-.318.224-.081.026-.216.124-.215.224 .001.115.005.051.012.169-.021.011-.021-.005-.03-.025" fill="#fff"></path>
				<path d="m8.156-33.39c.018.072.007.127-.026.19-.053.101-.112.063-.165.128-.05.063-.099.276-.079.362-.169.058-.009.227-.015.35-.002.05-.041.105-.045.161-.01.119.017.266.068.37 .097.198.268.413.435.544 .19.148.365.572.608.631 .177.042.384-.104.543-.143 .18-.043.397.01.571-.053 .222-.079.127-.337.288-.45 .104-.074.287-.01.406-.051 .2-.069.339-.263.376-.46 .016-.082.01-.145.039-.221 .039-.103.111-.16.09-.293-.01-.062-.052-.12-.064-.187-.022-.114.002-.224 0-.337-.003-.2.017-.379-.078-.55-.38-.688-1.236-.929-1.975-.789-.18.034-.287.126-.442.207-.17.088-.139.166-.318.224-.081.026-.216.124-.215.224 .001.115.005.051.012.169-.021.011-.021-.005-.03-.025" fill="#fff"></path>
				<path d="m.495-33.39c.018.072.007.127-.026.19-.053.101-.112.063-.165.128-.05.063-.099.276-.079.362-.169.058-.01.227-.015.35-.002.05-.041.105-.045.161-.01.119.017.266.068.37 .097.198.268.413.435.544 .19.148.365.572.608.631 .177.042.384-.104.543-.143 .18-.043.397.01.571-.053 .222-.079.127-.337.288-.45 .104-.074.287-.01.406-.051 .2-.069.339-.263.376-.46 .016-.082.01-.145.039-.221 .039-.103.111-.16.09-.293-.01-.062-.052-.12-.064-.187-.022-.114.002-.224 0-.337-.003-.2.017-.379-.078-.55-.38-.688-1.236-.929-1.975-.789-.18.034-.287.126-.442.207-.17.088-.139.166-.318.224-.081.026-.216.124-.215.224 .003.117.006.053.013.171-.021.011-.021-.005-.03-.025" fill="#fff"></path>
			
			
				<path d="m69.439-25.736c.018.072.007.127-.026.19-.053.101-.112.063-.165.128-.05.063-.099.276-.079.362-.169.058-.01.227-.015.35-.002.05-.041.105-.045.161-.01.119.017.266.068.37 .097.198.268.413.435.544 .19.148.365.572.608.631 .177.042.384-.104.543-.143 .18-.043.397.01.571-.053 .222-.079.127-.337.288-.45 .104-.074.287-.01.406-.051 .2-.069.339-.263.376-.46 .016-.082.01-.145.039-.221 .039-.103.111-.16.09-.293-.01-.062-.052-.12-.064-.187-.022-.114.002-.224 0-.337-.003-.2.017-.379-.078-.55-.38-.688-1.236-.929-1.975-.789-.18.034-.287.126-.442.207-.17.088-.139.166-.318.224-.081.026-.216.124-.215.224 .001.115.005.051.012.169-.021.011-.021-.005-.03-.025" fill="#fff"></path>
				<path d="m61.778-25.736c.018.072.007.127-.026.19-.053.101-.112.063-.165.128-.05.063-.099.276-.079.362-.169.058-.009.227-.015.35-.002.05-.041.105-.045.161-.01.119.017.266.068.37 .097.198.268.413.435.544 .19.148.365.572.608.631 .177.042.384-.104.543-.143 .18-.043.397.01.571-.053 .222-.079.127-.337.288-.45 .104-.074.287-.01.406-.051 .2-.069.339-.263.376-.46 .016-.082.01-.145.039-.221 .039-.103.111-.16.09-.293-.01-.062-.052-.12-.064-.187-.022-.114.002-.224 0-.337-.003-.2.017-.379-.078-.55-.38-.688-1.236-.929-1.975-.789-.18.034-.287.126-.442.207-.17.088-.139.166-.318.224-.081.026-.216.124-.215.224 .001.115.005.051.012.169-.021.011-.021-.005-.03-.025" fill="#fff"></path>
				<path d="m54.118-25.736c.018.072.007.127-.026.19-.053.101-.112.063-.165.128-.05.063-.099.276-.079.362-.169.058-.009.227-.015.35-.002.05-.041.105-.045.161-.01.119.017.266.068.37 .097.198.268.413.435.544 .19.148.365.572.608.631 .177.042.384-.104.543-.143 .18-.043.397.01.571-.053 .222-.079.127-.337.288-.45 .104-.074.287-.01.406-.051 .2-.069.339-.263.376-.46 .016-.082.01-.145.039-.221 .039-.103.111-.16.09-.293-.01-.062-.052-.12-.064-.187-.022-.114.002-.224 0-.337-.003-.2.017-.379-.078-.55-.38-.688-1.236-.929-1.975-.789-.18.034-.287.126-.442.207-.17.088-.139.166-.318.224-.081.026-.216.124-.215.224 .001.115.005.051.012.169-.021.011-.021-.005-.03-.025" fill="#fff"></path>
				<path d="m46.458-25.736c.018.072.007.127-.026.19-.053.101-.112.063-.165.128-.05.063-.099.276-.079.362-.169.058-.009.227-.015.35-.002.05-.041.105-.045.161-.01.119.017.266.068.37 .097.198.268.413.435.544 .19.148.365.572.608.631 .177.042.384-.104.543-.143 .18-.043.397.01.571-.053 .222-.079.127-.337.288-.45 .104-.074.287-.01.406-.051 .2-.069.339-.263.376-.46 .016-.082.01-.145.039-.221 .039-.103.111-.16.09-.293-.01-.062-.052-.12-.064-.187-.022-.114.002-.224 0-.337-.003-.2.017-.379-.078-.55-.38-.688-1.236-.929-1.975-.789-.18.034-.287.126-.442.207-.17.088-.139.166-.318.224-.081.026-.216.124-.215.224 .001.115.005.051.012.169-.021.011-.021-.005-.03-.025" fill="#fff"></path>
				<path d="m38.797-25.736c.018.072.007.127-.026.19-.053.101-.112.063-.165.128-.05.063-.099.276-.079.362-.169.058-.009.227-.015.35-.002.05-.041.105-.045.161-.01.119.017.266.068.37 .097.198.268.413.435.544 .19.148.365.572.608.631 .177.042.384-.104.543-.143 .18-.043.397.01.571-.053 .222-.079.127-.337.288-.45 .104-.074.287-.01.406-.051 .2-.069.339-.263.376-.46 .016-.082.01-.145.039-.221 .039-.103.111-.16.09-.293-.01-.062-.052-.12-.064-.187-.022-.114.002-.224 0-.337-.003-.2.017-.379-.078-.55-.38-.688-1.236-.929-1.975-.789-.18.034-.287.126-.442.207-.17.088-.139.166-.318.224-.081.026-.216.124-.215.224 .001.115.005.051.012.169-.021.011-.021-.005-.03-.025" fill="#fff"></path>
				<path d="m31.137-25.736c.018.072.007.127-.026.19-.053.101-.112.063-.165.128-.05.063-.099.276-.079.362-.169.058-.009.227-.015.35-.002.05-.041.105-.045.161-.01.119.017.266.068.37 .097.198.268.413.435.544 .19.148.365.572.608.631 .177.042.384-.104.543-.143 .18-.043.397.01.571-.053 .222-.079.127-.337.288-.45 .104-.074.287-.01.406-.051 .2-.069.339-.263.376-.46 .016-.082.01-.145.039-.221 .039-.103.111-.16.09-.293-.01-.062-.052-.12-.064-.187-.022-.114.002-.224 0-.337-.003-.2.017-.379-.078-.55-.38-.688-1.236-.929-1.975-.789-.18.034-.287.126-.442.207-.17.088-.139.166-.318.224-.081.026-.216.124-.215.224 .001.115.005.051.012.169-.021.011-.021-.005-.03-.025" fill="#fff"></path>
				<path d="m23.477-25.736c.018.072.007.127-.026.19-.053.101-.112.063-.165.128-.05.063-.099.276-.079.362-.169.058-.009.227-.015.35-.002.05-.041.105-.045.161-.01.119.017.266.068.37 .097.198.268.413.435.544 .19.148.365.572.608.631 .177.042.384-.104.543-.143 .18-.043.397.01.571-.053 .222-.079.127-.337.288-.45 .104-.074.287-.01.406-.051 .2-.069.339-.263.376-.46 .016-.082.01-.145.039-.221 .039-.103.111-.16.09-.293-.01-.062-.052-.12-.064-.187-.022-.114.002-.224 0-.337-.003-.2.017-.379-.078-.55-.38-.688-1.236-.929-1.975-.789-.18.034-.287.126-.442.207-.17.088-.139.166-.318.224-.081.026-.216.124-.215.224 .001.115.005.051.012.169-.021.011-.021-.005-.03-.025" fill="#fff"></path>
				<path d="m15.816-25.736c.018.072.007.127-.026.19-.053.101-.112.063-.165.128-.05.063-.099.276-.079.362-.169.058-.009.227-.015.35-.002.05-.041.105-.045.161-.01.119.017.266.068.37 .097.198.268.413.435.544 .19.148.365.572.608.631 .177.042.384-.104.543-.143 .18-.043.397.01.571-.053 .222-.079.127-.337.288-.45 .104-.074.287-.01.406-.051 .2-.069.339-.263.376-.46 .016-.082.01-.145.039-.221 .039-.103.111-.16.09-.293-.01-.062-.052-.12-.064-.187-.022-.114.002-.224 0-.337-.003-.2.017-.379-.078-.55-.38-.688-1.236-.929-1.975-.789-.18.034-.287.126-.442.207-.17.088-.139.166-.318.224-.081.026-.216.124-.215.224 .001.115.005.051.012.169-.021.011-.021-.005-.03-.025" fill="#fff"></path>
				<path d="m8.156-25.736c.018.072.007.127-.026.19-.053.101-.112.063-.165.128-.05.063-.099.276-.079.362-.169.058-.009.227-.015.35-.002.05-.041.105-.045.161-.01.119.017.266.068.37 .097.198.268.413.435.544 .19.148.365.572.608.631 .177.042.384-.104.543-.143 .18-.043.397.01.571-.053 .222-.079.127-.337.288-.45 .104-.074.287-.01.406-.051 .2-.069.339-.263.376-.46 .016-.082.01-.145.039-.221 .039-.103.111-.16.09-.293-.01-.062-.052-.12-.064-.187-.022-.114.002-.224 0-.337-.003-.2.017-.379-.078-.55-.38-.688-1.236-.929-1.975-.789-.18.034-.287.126-.442.207-.17.088-.139.166-.318.224-.081.026-.216.124-.215.224 .001.115.005.051.012.169-.021.011-.021-.005-.03-.025" fill="#fff"></path>
				<path d="m.495-25.736c.018.072.007.127-.026.19-.053.101-.112.063-.165.128-.05.063-.099.276-.079.362-.169.058-.01.227-.015.35-.002.05-.041.105-.045.161-.01.119.017.266.068.37 .097.198.268.413.435.544 .19.148.365.572.608.631 .177.042.384-.104.543-.143 .18-.043.397.01.571-.053 .222-.079.127-.337.288-.45 .104-.074.287-.01.406-.051 .2-.069.339-.263.376-.46 .016-.082.01-.145.039-.221 .039-.103.111-.16.09-.293-.01-.062-.052-.12-.064-.187-.022-.114.002-.224 0-.337-.003-.2.017-.379-.078-.55-.38-.688-1.236-.929-1.975-.789-.18.034-.287.126-.442.207-.17.088-.139.166-.318.224-.081.026-.216.124-.215.224 .001.115.005.051.012.169-.021.011-.021-.005-.03-.025" fill="#fff"></path>
			
			
				<path d="m69.439-18.084c.018.072.007.127-.026.19-.053.101-.112.063-.165.128-.05.063-.099.276-.079.362-.169.058-.01.227-.015.35-.002.05-.041.105-.045.161-.01.119.017.266.068.37 .097.198.268.413.435.544 .19.148.365.572.608.631 .177.042.384-.104.543-.143 .18-.043.397.01.571-.053 .222-.079.127-.337.288-.45 .104-.074.287-.01.406-.051 .2-.069.339-.263.376-.46 .016-.082.01-.145.039-.221 .039-.103.111-.16.09-.293-.01-.062-.052-.12-.064-.187-.022-.114.002-.224 0-.337-.003-.2.017-.379-.078-.55-.38-.688-1.236-.929-1.975-.789-.18.034-.287.126-.442.207-.17.088-.139.166-.318.224-.081.026-.216.124-.215.224 .001.115.005.051.012.169-.021.011-.021-.005-.03-.025" fill="#fff"></path>
				<path d="m61.778-18.084c.018.072.007.127-.026.19-.053.101-.112.063-.165.128-.05.063-.099.276-.079.362-.169.058-.009.227-.015.35-.002.05-.041.105-.045.161-.01.119.017.266.068.37 .097.198.268.413.435.544 .19.148.365.572.608.631 .177.042.384-.104.543-.143 .18-.043.397.01.571-.053 .222-.079.127-.337.288-.45 .104-.074.287-.01.406-.051 .2-.069.339-.263.376-.46 .016-.082.01-.145.039-.221 .039-.103.111-.16.09-.293-.01-.062-.052-.12-.064-.187-.022-.114.002-.224 0-.337-.003-.2.017-.379-.078-.55-.38-.688-1.236-.929-1.975-.789-.18.034-.287.126-.442.207-.17.088-.139.166-.318.224-.081.026-.216.124-.215.224 .001.115.005.051.012.169-.021.011-.021-.005-.03-.025" fill="#fff"></path>
				<path d="m54.118-18.084c.018.072.007.127-.026.19-.053.101-.112.063-.165.128-.05.063-.099.276-.079.362-.169.058-.009.227-.015.35-.002.05-.041.105-.045.161-.01.119.017.266.068.37 .097.198.268.413.435.544 .19.148.365.572.608.631 .177.042.384-.104.543-.143 .18-.043.397.01.571-.053 .222-.079.127-.337.288-.45 .104-.074.287-.01.406-.051 .2-.069.339-.263.376-.46 .016-.082.01-.145.039-.221 .039-.103.111-.16.09-.293-.01-.062-.052-.12-.064-.187-.022-.114.002-.224 0-.337-.003-.2.017-.379-.078-.55-.38-.688-1.236-.929-1.975-.789-.18.034-.287.126-.442.207-.17.088-.139.166-.318.224-.081.026-.216.124-.215.224 .001.115.005.051.012.169-.021.011-.021-.005-.03-.025" fill="#fff"></path>
				<path d="m46.458-18.084c.018.072.007.127-.026.19-.053.101-.112.063-.165.128-.05.063-.099.276-.079.362-.169.058-.009.227-.015.35-.002.05-.041.105-.045.161-.01.119.017.266.068.37 .097.198.268.413.435.544 .19.148.365.572.608.631 .177.042.384-.104.543-.143 .18-.043.397.01.571-.053 .222-.079.127-.337.288-.45 .104-.074.287-.01.406-.051 .2-.069.339-.263.376-.46 .016-.082.01-.145.039-.221 .039-.103.111-.16.09-.293-.01-.062-.052-.12-.064-.187-.022-.114.002-.224 0-.337-.003-.2.017-.379-.078-.55-.38-.688-1.236-.929-1.975-.789-.18.034-.287.126-.442.207-.17.088-.139.166-.318.224-.081.026-.216.124-.215.224 .001.115.005.051.012.169-.021.011-.021-.005-.03-.025" fill="#fff"></path>
				<path d="m38.797-18.084c.018.072.007.127-.026.19-.053.101-.112.063-.165.128-.05.063-.099.276-.079.362-.169.058-.009.227-.015.35-.002.05-.041.105-.045.161-.01.119.017.266.068.37 .097.198.268.413.435.544 .19.148.365.572.608.631 .177.042.384-.104.543-.143 .18-.043.397.01.571-.053 .222-.079.127-.337.288-.45 .104-.074.287-.01.406-.051 .2-.069.339-.263.376-.46 .016-.082.01-.145.039-.221 .039-.103.111-.16.09-.293-.01-.062-.052-.12-.064-.187-.022-.114.002-.224 0-.337-.003-.2.017-.379-.078-.55-.38-.688-1.236-.929-1.975-.789-.18.034-.287.126-.442.207-.17.088-.139.166-.318.224-.081.026-.216.124-.215.224 .001.115.005.051.012.169-.021.011-.021-.005-.03-.025" fill="#fff"></path>
				<path d="m31.137-18.084c.018.072.007.127-.026.19-.053.101-.112.063-.165.128-.05.063-.099.276-.079.362-.169.058-.009.227-.015.35-.002.05-.041.105-.045.161-.01.119.017.266.068.37 .097.198.268.413.435.544 .19.148.365.572.608.631 .177.042.384-.104.543-.143 .18-.043.397.01.571-.053 .222-.079.127-.337.288-.45 .104-.074.287-.01.406-.051 .2-.069.339-.263.376-.46 .016-.082.01-.145.039-.221 .039-.103.111-.16.09-.293-.01-.062-.052-.12-.064-.187-.022-.114.002-.224 0-.337-.003-.2.017-.379-.078-.55-.38-.688-1.236-.929-1.975-.789-.18.034-.287.126-.442.207-.17.088-.139.166-.318.224-.081.026-.216.124-.215.224 .001.115.005.051.012.169-.021.011-.021-.005-.03-.025" fill="#fff"></path>
				<path d="m23.477-18.084c.018.072.007.127-.026.19-.053.101-.112.063-.165.128-.05.063-.099.276-.079.362-.169.058-.009.227-.015.35-.002.05-.041.105-.045.161-.01.119.017.266.068.37 .097.198.268.413.435.544 .19.148.365.572.608.631 .177.042.384-.104.543-.143 .18-.043.397.01.571-.053 .222-.079.127-.337.288-.45 .104-.074.287-.01.406-.051 .2-.069.339-.263.376-.46 .016-.082.01-.145.039-.221 .039-.103.111-.16.09-.293-.01-.062-.052-.12-.064-.187-.022-.114.002-.224 0-.337-.003-.2.017-.379-.078-.55-.38-.688-1.236-.929-1.975-.789-.18.034-.287.126-.442.207-.17.088-.139.166-.318.224-.081.026-.216.124-.215.224 .001.115.005.051.012.169-.021.011-.021-.005-.03-.025" fill="#fff"></path>
				<path d="m15.816-18.084c.018.072.007.127-.026.19-.053.101-.112.063-.165.128-.05.063-.099.276-.079.362-.169.058-.009.227-.015.35-.002.05-.041.105-.045.161-.01.119.017.266.068.37 .097.198.268.413.435.544 .19.148.365.572.608.631 .177.042.384-.104.543-.143 .18-.043.397.01.571-.053 .222-.079.127-.337.288-.45 .104-.074.287-.01.406-.051 .2-.069.339-.263.376-.46 .016-.082.01-.145.039-.221 .039-.103.111-.16.09-.293-.01-.062-.052-.12-.064-.187-.022-.114.002-.224 0-.337-.003-.2.017-.379-.078-.55-.38-.688-1.236-.929-1.975-.789-.18.034-.287.126-.442.207-.17.088-.139.166-.318.224-.081.026-.216.124-.215.224 .001.115.005.051.012.169-.021.011-.021-.005-.03-.025" fill="#fff"></path>
				<path d="m8.156-18.084c.018.072.007.127-.026.19-.053.101-.112.063-.165.128-.05.063-.099.276-.079.362-.169.058-.009.227-.015.35-.002.05-.041.105-.045.161-.01.119.017.266.068.37 .097.198.268.413.435.544 .19.148.365.572.608.631 .177.042.384-.104.543-.143 .18-.043.397.01.571-.053 .222-.079.127-.337.288-.45 .104-.074.287-.01.406-.051 .2-.069.339-.263.376-.46 .016-.082.01-.145.039-.221 .039-.103.111-.16.09-.293-.01-.062-.052-.12-.064-.187-.022-.114.002-.224 0-.337-.003-.2.017-.379-.078-.55-.38-.688-1.236-.929-1.975-.789-.18.034-.287.126-.442.207-.17.088-.139.166-.318.224-.081.026-.216.124-.215.224 .001.115.005.051.012.169-.021.011-.021-.005-.03-.025" fill="#fff"></path>
				<path d="m.495-18.084c.018.072.007.127-.026.19-.053.101-.112.063-.165.128-.05.063-.099.276-.079.362-.169.058-.01.227-.015.35-.002.05-.041.105-.045.161-.01.119.017.266.068.37 .097.198.268.413.435.544 .19.148.365.572.608.631 .177.042.384-.104.543-.143 .18-.043.397.01.571-.053 .222-.079.127-.337.288-.45 .104-.074.287-.01.406-.051 .2-.069.339-.263.376-.46 .016-.082.01-.145.039-.221 .039-.103.111-.16.09-.293-.01-.062-.052-.12-.064-.187-.022-.114.002-.224 0-.337-.003-.2.017-.379-.078-.55-.38-.688-1.236-.929-1.975-.789-.18.034-.287.126-.442.207-.17.088-.139.166-.318.224-.081.026-.216.124-.215.224 .003.117.006.052.013.17-.021.011-.021-.005-.03-.025" fill="#fff"></path>
			
			
				<path d="m69.439-10.431c.018.072.007.127-.026.19-.053.101-.112.063-.165.128-.05.063-.099.276-.079.362-.169.059-.01.228-.015.351-.002.05-.041.105-.045.161-.01.119.017.266.068.37 .097.198.268.413.435.544 .19.148.365.572.608.631 .177.042.384-.104.543-.143 .18-.043.397.01.571-.053 .222-.079.127-.337.288-.45 .104-.074.287-.01.406-.051 .2-.069.339-.263.376-.46 .016-.082.01-.145.039-.221 .039-.103.111-.16.09-.293-.01-.062-.052-.12-.064-.187-.022-.114.002-.224 0-.337-.003-.2.017-.379-.078-.55-.38-.688-1.236-.929-1.975-.789-.18.034-.287.126-.442.207-.17.088-.139.166-.318.224-.081.026-.216.124-.215.224 .001.115.005.051.012.169-.021.011-.021-.005-.03-.025" fill="#fff"></path>
				<path d="m61.778-10.431c.018.072.007.127-.026.19-.053.101-.112.063-.165.128-.05.063-.099.276-.079.362-.169.058-.009.227-.015.35-.002.05-.041.105-.045.161-.01.119.017.266.068.37 .097.198.268.413.435.544 .19.148.365.572.608.631 .177.042.384-.104.543-.143 .18-.043.397.01.571-.053 .222-.079.127-.337.288-.45 .104-.074.287-.01.406-.051 .2-.069.339-.263.376-.46 .016-.082.01-.145.039-.221 .039-.103.111-.16.09-.293-.01-.062-.052-.12-.064-.187-.022-.114.002-.224 0-.337-.003-.2.017-.379-.078-.55-.38-.688-1.236-.929-1.975-.789-.18.034-.287.126-.442.207-.17.088-.139.166-.318.224-.081.026-.216.124-.215.224 .001.115.005.051.012.169-.021.011-.021-.005-.03-.025" fill="#fff"></path>
				<path d="m54.118-10.431c.018.072.007.127-.026.19-.053.101-.112.063-.165.128-.05.063-.099.276-.079.362-.169.058-.009.227-.015.35-.002.05-.041.105-.045.161-.01.119.017.266.068.37 .097.198.268.413.435.544 .19.148.365.572.608.631 .177.042.384-.104.543-.143 .18-.043.397.01.571-.053 .222-.079.127-.337.288-.45 .104-.074.287-.01.406-.051 .2-.069.339-.263.376-.46 .016-.082.01-.145.039-.221 .039-.103.111-.16.09-.293-.01-.062-.052-.12-.064-.187-.022-.114.002-.224 0-.337-.003-.2.017-.379-.078-.55-.38-.688-1.236-.929-1.975-.789-.18.034-.287.126-.442.207-.17.088-.139.166-.318.224-.081.026-.216.124-.215.224 .001.115.005.051.012.169-.021.011-.021-.005-.03-.025" fill="#fff"></path>
				<path d="m46.458-10.431c.018.072.007.127-.026.19-.053.101-.112.063-.165.128-.05.063-.099.276-.079.362-.169.058-.009.227-.015.35-.002.05-.041.105-.045.161-.01.119.017.266.068.37 .097.198.268.413.435.544 .19.148.365.572.608.631 .177.042.384-.104.543-.143 .18-.043.397.01.571-.053 .222-.079.127-.337.288-.45 .104-.074.287-.01.406-.051 .2-.069.339-.263.376-.46 .016-.082.01-.145.039-.221 .039-.103.111-.16.09-.293-.01-.062-.052-.12-.064-.187-.022-.114.002-.224 0-.337-.003-.2.017-.379-.078-.55-.38-.688-1.236-.929-1.975-.789-.18.034-.287.126-.442.207-.17.088-.139.166-.318.224-.081.026-.216.124-.215.224 .001.115.005.051.012.169-.021.011-.021-.005-.03-.025" fill="#fff"></path>
				<path d="m38.797-10.431c.018.072.007.127-.026.19-.053.101-.112.063-.165.128-.05.063-.099.276-.079.362-.169.058-.009.227-.015.35-.002.05-.041.105-.045.161-.01.119.017.266.068.37 .097.198.268.413.435.544 .19.148.365.572.608.631 .177.042.384-.104.543-.143 .18-.043.397.01.571-.053 .222-.079.127-.337.288-.45 .104-.074.287-.01.406-.051 .2-.069.339-.263.376-.46 .016-.082.01-.145.039-.221 .039-.103.111-.16.09-.293-.01-.062-.052-.12-.064-.187-.022-.114.002-.224 0-.337-.003-.2.017-.379-.078-.55-.38-.688-1.236-.929-1.975-.789-.18.034-.287.126-.442.207-.17.088-.139.166-.318.224-.081.026-.216.124-.215.224 .001.115.005.051.012.169-.021.011-.021-.005-.03-.025" fill="#fff"></path>
				<path d="m31.137-10.431c.018.072.007.127-.026.19-.053.101-.112.063-.165.128-.05.063-.099.276-.079.362-.169.058-.009.227-.015.35-.002.05-.041.105-.045.161-.01.119.017.266.068.37 .097.198.268.413.435.544 .19.148.365.572.608.631 .177.042.384-.104.543-.143 .18-.043.397.01.571-.053 .222-.079.127-.337.288-.45 .104-.074.287-.01.406-.051 .2-.069.339-.263.376-.46 .016-.082.01-.145.039-.221 .039-.103.111-.16.09-.293-.01-.062-.052-.12-.064-.187-.022-.114.002-.224 0-.337-.003-.2.017-.379-.078-.55-.38-.688-1.236-.929-1.975-.789-.18.034-.287.126-.442.207-.17.088-.139.166-.318.224-.081.026-.216.124-.215.224 .001.115.005.051.012.169-.021.011-.021-.005-.03-.025" fill="#fff"></path>
				<path d="m23.477-10.431c.018.072.007.127-.026.19-.053.101-.112.063-.165.128-.05.063-.099.276-.079.362-.169.058-.009.227-.015.35-.002.05-.041.105-.045.161-.01.119.017.266.068.37 .097.198.268.413.435.544 .19.148.365.572.608.631 .177.042.384-.104.543-.143 .18-.043.397.01.571-.053 .222-.079.127-.337.288-.45 .104-.074.287-.01.406-.051 .2-.069.339-.263.376-.46 .016-.082.01-.145.039-.221 .039-.103.111-.16.09-.293-.01-.062-.052-.12-.064-.187-.022-.114.002-.224 0-.337-.003-.2.017-.379-.078-.55-.38-.688-1.236-.929-1.975-.789-.18.034-.287.126-.442.207-.17.088-.139.166-.318.224-.081.026-.216.124-.215.224 .001.115.005.051.012.169-.021.011-.021-.005-.03-.025" fill="#fff"></path>
				<path d="m15.816-10.431c.018.072.007.127-.026.19-.053.101-.112.063-.165.128-.05.063-.099.276-.079.362-.169.058-.009.227-.015.35-.002.05-.041.105-.045.161-.01.119.017.266.068.37 .097.198.268.413.435.544 .19.148.365.572.608.631 .177.042.384-.104.543-.143 .18-.043.397.01.571-.053 .222-.078.128-.336.289-.449 .104-.074.287-.01.406-.051 .2-.069.339-.263.376-.46 .016-.082.01-.145.039-.221 .039-.103.111-.16.09-.293-.01-.062-.052-.12-.064-.187-.022-.114.002-.224 0-.337-.003-.2.017-.379-.078-.55-.38-.688-1.236-.929-1.975-.789-.18.034-.287.126-.442.207-.17.088-.139.166-.318.224-.081.026-.216.124-.215.224 .001.115.005.051.012.169-.021.011-.021-.005-.03-.025" fill="#fff"></path>
				<path d="m8.156-10.431c.018.072.007.127-.026.19-.053.101-.112.063-.165.128-.05.063-.099.277-.079.363-.169.058-.01.227-.015.35-.003.049-.041.105-.045.161-.01.119.017.266.068.37 .097.198.268.413.435.544 .19.148.365.572.608.631 .177.042.384-.105.543-.143 .18-.043.397.01.571-.053 .222-.079.127-.337.288-.45 .104-.074.287-.01.406-.051 .2-.069.339-.263.376-.46 .016-.082.01-.145.039-.221 .039-.103.111-.16.09-.293-.01-.062-.052-.12-.064-.187-.022-.114.002-.224 0-.337-.003-.2.017-.379-.078-.55-.38-.688-1.236-.929-1.975-.789-.18.034-.287.126-.442.207-.17.088-.139.166-.318.224-.081.026-.216.124-.215.224 .001.115.005.051.012.169-.021.011-.021-.005-.03-.025" fill="#fff"></path>
				<path d="m.495-10.431c.018.072.007.127-.026.19-.053.101-.112.063-.165.128-.05.063-.099.277-.079.363-.169.058-.01.227-.015.35-.002.05-.041.105-.045.161-.01.119.017.266.068.37 .097.198.268.413.435.544 .19.148.365.572.608.631 .178.042.384-.105.543-.143 .181-.043.398.01.572-.053 .222-.079.127-.337.288-.45 .104-.074.287-.01.406-.051 .2-.069.339-.263.376-.46 .016-.082.01-.144.039-.22 .039-.103.111-.16.09-.293-.01-.062-.052-.12-.064-.187-.022-.114.002-.224 0-.337-.003-.2.017-.379-.078-.55-.38-.688-1.236-.929-1.975-.789-.18.034-.287.126-.442.207-.17.088-.139.166-.318.224-.081.026-.216.124-.215.224 .001.115.005.051.012.169-.021.011-.021-.005-.03-.025" fill="#fff"></path>
			
		
		
			<path d="m69.439-2.778c.018.072.008.127-.026.19-.052.101-.113.063-.165.128-.051.063-.099.276-.079.362-.169.058-.01.227-.015.35-.002.05-.041.105-.045.161-.01.119.017.266.068.37 .097.198.268.413.435.544 .19.148.365.572.608.631 .177.042.384-.104.543-.143 .18-.043.397.01.571-.053 .222-.079.127-.337.288-.45 .104-.074.287-.01.406-.051 .2-.07.339-.263.376-.46 .016-.082.01-.145.039-.221 .038-.103.111-.16.09-.293-.01-.062-.051-.12-.064-.187-.021-.114.002-.224 0-.337-.003-.2.017-.379-.078-.55-.38-.688-1.236-.929-1.975-.789-.18.034-.287.126-.442.207-.17.088-.139.166-.318.224-.081.026-.215.124-.215.224 .002.115.005.051.012.169-.021.011-.021-.005-.03-.025" fill="#fff"></path>
			<path d="m61.778-2.778c.018.072.007.127-.026.19-.052.101-.112.063-.165.128-.05.063-.099.276-.079.362-.169.058-.01.227-.015.35-.002.05-.041.105-.045.161-.01.119.017.266.068.37 .097.198.268.413.435.544 .19.148.365.572.608.631 .178.042.384-.104.544-.143 .18-.043.397.01.571-.053 .222-.079.127-.337.288-.45 .104-.074.287-.01.406-.051 .2-.069.339-.263.376-.46 .016-.082.01-.145.039-.221 .039-.103.111-.16.09-.293-.01-.062-.052-.12-.064-.187-.022-.114.002-.224 0-.337-.003-.2.017-.379-.078-.55-.38-.688-1.236-.929-1.975-.789-.18.034-.287.126-.442.207-.17.088-.139.166-.318.224-.081.028-.216.125-.215.225 .001.115.005.051.012.169-.021.011-.021-.005-.03-.025" fill="#fff"></path>
			<path d="m54.118-2.778c.018.072.007.127-.026.19-.052.101-.112.063-.165.128-.05.063-.099.276-.079.362-.169.058-.01.227-.015.35-.002.05-.041.105-.045.161-.01.119.017.266.068.37 .097.198.268.413.435.544 .19.148.365.572.608.631 .178.042.384-.104.543-.143 .18-.043.397.01.571-.053 .222-.079.127-.337.288-.45 .104-.074.287-.01.406-.051 .2-.069.339-.263.376-.46 .016-.082.01-.145.039-.221 .039-.103.111-.16.09-.293-.01-.062-.052-.12-.064-.187-.022-.114.002-.224 0-.337-.003-.2.017-.379-.078-.55-.38-.688-1.236-.929-1.975-.789-.18.034-.287.126-.442.207-.17.088-.139.166-.318.224-.08.028-.215.125-.214.225 .001.115.005.051.012.169-.021.011-.021-.005-.03-.025" fill="#fff"></path>
			<path d="m46.458-2.778c.018.072.007.127-.026.19-.053.101-.112.063-.165.128-.05.063-.099.276-.079.362-.169.058-.01.227-.015.35-.002.05-.041.105-.045.161-.01.119.017.266.068.37 .097.198.268.413.435.544 .19.148.365.572.608.631 .177.042.384-.104.543-.143 .18-.043.397.01.571-.053 .222-.079.127-.337.288-.45 .104-.074.287-.01.406-.051 .2-.069.339-.263.376-.46 .016-.082.01-.145.039-.221 .039-.103.111-.16.09-.293-.01-.062-.052-.12-.064-.187-.022-.114.002-.224 0-.337-.003-.2.017-.379-.078-.55-.38-.688-1.236-.929-1.975-.789-.18.034-.287.126-.442.207-.17.088-.139.166-.318.224-.081.028-.216.125-.215.225 .001.115.005.051.012.169-.021.011-.021-.005-.03-.025" fill="#fff"></path>
			<path d="m38.797-2.778c.018.072.007.127-.026.19-.053.101-.112.063-.165.128-.05.063-.099.276-.079.362-.169.058-.01.227-.015.35-.002.05-.041.105-.045.161-.01.119.017.266.068.37 .097.198.268.413.435.544 .19.148.365.572.608.631 .178.042.384-.104.544-.143 .18-.043.397.01.571-.053 .222-.079.127-.337.288-.45 .104-.074.287-.01.406-.051 .2-.069.339-.263.376-.46 .016-.082.01-.145.039-.221 .039-.103.111-.16.09-.293-.01-.062-.052-.12-.064-.187-.022-.114.002-.224 0-.337-.003-.2.017-.379-.078-.55-.38-.688-1.236-.929-1.975-.789-.18.034-.287.126-.442.207-.17.088-.139.166-.318.224-.081.028-.216.125-.215.225 .001.115.005.051.012.169-.021.011-.021-.005-.03-.025" fill="#fff"></path>
			<path d="m31.137-2.778c.018.072.007.127-.026.19-.053.101-.112.063-.165.128-.05.063-.099.276-.079.362-.169.058-.01.227-.015.35-.002.05-.041.105-.045.161-.01.119.017.266.068.37 .097.198.268.413.435.544 .19.148.365.572.608.631 .177.042.384-.104.543-.143 .18-.043.397.01.571-.053 .222-.079.127-.337.288-.45 .104-.074.287-.01.406-.051 .2-.069.339-.263.376-.46 .016-.082.01-.145.039-.221 .039-.103.111-.16.09-.293-.01-.062-.052-.12-.064-.187-.022-.114.002-.224 0-.337-.003-.2.017-.379-.078-.55-.38-.688-1.236-.929-1.975-.789-.18.034-.287.126-.442.207-.17.088-.139.166-.318.224-.081.028-.215.125-.214.225 .001.115.005.051.012.169-.021.011-.021-.005-.03-.025" fill="#fff"></path>
			<path d="m23.477-2.778c.018.072.007.127-.026.19-.053.101-.112.063-.165.128-.05.063-.099.276-.079.362-.169.058-.01.227-.015.35-.002.05-.041.105-.045.161-.01.119.017.266.068.37 .097.198.268.413.435.544 .19.148.365.572.608.631 .177.042.384-.104.543-.143 .18-.043.397.01.571-.053 .222-.079.127-.337.288-.45 .104-.074.287-.01.406-.051 .2-.069.339-.263.376-.46 .016-.082.01-.145.039-.221 .039-.103.111-.16.09-.293-.01-.062-.052-.12-.064-.187-.022-.114.002-.224 0-.337-.003-.2.017-.379-.078-.55-.38-.688-1.236-.929-1.975-.789-.18.034-.287.126-.442.207-.17.088-.139.166-.318.224-.081.026-.216.124-.215.224 .001.115.005.051.012.169-.021.011-.021-.005-.03-.025" fill="#fff"></path>
			<path d="m15.816-2.778c.018.072.007.127-.026.19-.053.101-.112.063-.165.128-.05.063-.099.276-.079.362-.169.058-.01.227-.015.35-.002.05-.041.105-.045.161-.01.119.017.266.068.37 .097.198.268.413.435.544 .19.148.365.572.608.631 .177.042.384-.104.543-.143 .18-.043.397.01.571-.053 .222-.079.127-.337.288-.45 .104-.074.287-.01.406-.051 .2-.069.339-.263.376-.46 .016-.082.01-.145.039-.221 .039-.103.111-.16.09-.293-.01-.062-.052-.12-.064-.187-.022-.114.002-.224 0-.337-.003-.2.017-.379-.078-.55-.38-.688-1.236-.929-1.975-.789-.18.034-.287.126-.442.207-.17.088-.139.166-.318.224-.081.026-.216.124-.215.224 .001.115.005.051.012.169-.02.012-.021-.004-.03-.024" fill="#fff"></path>
			<path d="m8.156-2.778c.018.072.007.127-.026.19-.053.101-.112.063-.165.128-.05.063-.099.276-.079.362-.169.058-.01.227-.015.35-.003.05-.041.105-.045.161-.01.119.017.266.068.37 .097.198.268.413.435.544 .19.148.365.572.608.631 .177.042.384-.104.543-.143 .18-.043.397.01.571-.053 .222-.079.127-.337.288-.45 .104-.074.287-.01.406-.051 .2-.069.339-.263.376-.46 .016-.082.01-.145.039-.221 .039-.103.111-.16.09-.293-.01-.062-.052-.12-.064-.187-.022-.114.002-.224 0-.337-.003-.2.017-.379-.078-.55-.38-.688-1.236-.929-1.975-.789-.179.036-.286.128-.441.209-.17.088-.139.166-.318.224-.082.026-.216.123-.215.223 .001.115.005.051.011.169-.02.011-.021-.005-.03-.025" fill="#fff"></path>
			<path d="m.495-2.778c.018.072.008.127-.026.19-.052.101-.113.063-.165.128-.051.063-.099.276-.079.362-.169.058-.01.227-.015.35-.002.05-.041.105-.045.161-.01.119.017.266.068.37 .097.198.268.413.435.544 .19.148.365.572.608.631 .178.042.384-.104.543-.143 .181-.043.398.01.572-.052 .222-.079.127-.337.288-.45 .104-.074.287-.01.406-.051 .2-.07.339-.263.376-.46 .016-.082.01-.145.039-.221 .038-.103.111-.16.09-.293-.01-.062-.051-.12-.064-.187-.021-.114.002-.224 0-.337-.003-.2.017-.379-.078-.55-.38-.688-1.236-.929-1.975-.789-.18.035-.286.127-.442.208-.17.088-.139.166-.318.224-.081.026-.215.123-.215.223 .002.115.005.051.012.169-.021.011-.022-.005-.031-.025" fill="#fff"></path>
		
	
</pattern></defs>


	<path d="m229.842,161.205c.018,60.508-49.029,109.569-109.538,109.569s-109.555-49.062-109.536-109.569c-.018-60.508 49.029-109.57 109.537-109.57s109.555,49.062 109.537,109.57z" fill="#fff" stroke="#010101" stroke-linecap="round" stroke-linejoin="round" stroke-width="3.2874"></path>
	<path d="m223.221,123.626c.076,1.682.125,3.393.125,5.094 0,60.464-49.068,109.531-109.532,109.531-47.262,0-87.592-30-102.938-71.969 2.653,58.111 50.674,104.469 109.438,104.469 60.463,0 109.532-49.067 109.532-109.531 0-13.202-2.338-25.87-6.625-37.594z" fill="#010101" fill-opacity=".3137"></path>
	
		<path d="m12.307,169.418c-.001,2.655.1,5.285.286,7.89 4.025-55.977 50.708-100.146 107.714-100.146s103.69,44.168 107.713,100.146c.19-2.604.287-5.234.287-7.89 .017-59.657-48.342-108.03-108-108.03s-108.018,48.373-108,108.03z" fill="#010101"></path>
		<path d="m119.307,104.725c53.095,0 96.888,39.789 103.209,91.172 .271-.763.535-1.528.79-2.298 0-.012.001-.023.001-.035 .017-57.447-46.552-104.028-104-104.028s-104.018,46.581-104,104.028c0,.012.001.023.001.035 .255.769.519,1.534.79,2.296 6.322-51.381 50.115-91.17 103.209-91.17z" fill="#010101"></path>
		<path d="m119.307,129.536c-47.284,0-87.191,31.559-99.825,74.756 .959,2.115 1.988,4.193 3.074,6.234 15.227-38.535 52.801-65.801 96.751-65.801s81.525,27.266 96.75,65.802c1.087-2.042 2.116-4.119 3.075-6.235-12.634-43.198-52.542-74.756-99.825-74.756z" fill="#010101"></path>
		<path d="m119.307,169.536c-38.477,0-72.07,20.896-90.059,51.957 1.668,2.404 3.426,4.74 5.276,6.999 18.85-26.486 49.795-43.767 84.782-43.767s65.933,17.28 84.782,43.768c1.85-2.26 3.608-4.596 5.275-7-17.987-31.06-51.579-51.957-90.056-51.957z" fill="#010101"></path>
	


	
		<path d="m112.808,271.777c0,9.091-14.665,9.381-32.734,9.381s-32.736.693-32.736-9.381c0-17.716 14.666-32.095 32.736-32.095s32.734,14.379 32.734,32.095z" fill="#343434" stroke="#010101" stroke-linecap="round" stroke-linejoin="round" stroke-width="4"></path>
		<path d="m67.483,280.557c0-16.368 9.442-26.44 9.442-26.44s-3.777,13.85-3.147,26.44h-6.295z" fill="#010101" fill-opacity=".3137" stroke="#010101" stroke-linejoin="round" stroke-width="4"></path>
	
	
		<path d="m127.806,271.777c0,9.091 14.666,9.381 32.735,9.381s32.735.693 32.735-9.381c0-17.716-14.666-32.095-32.735-32.095s-32.735,14.379-32.735,32.095z" fill="#343434" stroke="#010101" stroke-linecap="round" stroke-linejoin="round" stroke-width="4"></path>
		<path d="m173.132,280.557c0-16.368-9.443-26.44-9.443-26.44s3.777,13.85 3.147,26.44h6.296z" fill="#010101" fill-opacity=".3137" stroke="#010101" stroke-linejoin="round" stroke-width="4"></path>
	


	<path d="m113.918,34.501c.729.092 1.46.22 2.203.33 19.911,2.985 34.102,11.633 43.385,23.958l12.053-16.931-.247-.015c-8.23-19.026-24.54-32.751-50.741-36.681-.742-.112-1.476-.239-2.204-.331-10.559-1.321-20.015-.606-28.408,1.799l-4.448,29.667c8.391-2.404 17.849-3.119 28.407-1.796z" fill="#fff" stroke="#010101" stroke-linecap="round" stroke-linejoin="round" stroke-width="4"></path>
	
		<path d="m114.849,5.472c-9.15-.771-17.441.023-24.89,2.158l-4.448,29.667c4.182-1.198 8.628-1.976 13.344-2.292l4.104-27.375c3.747-1.073 7.717-1.789 11.89-2.158z" fill="#fff" stroke="#010101" stroke-linecap="round" stroke-linejoin="round" stroke-width="4"></path>
		<path d="m115.959,7.63c1.815-.521 3.69-.945 5.606-1.304l-.996-.163c-.742-.112-1.476-.239-2.204-.331-1.188-.149-2.356-.263-3.517-.361-4.173.369-8.144,1.084-11.89,2.158l-4.104,27.375c3.682-.247 7.531-.204 11.543.134 .487-.043.965-.102 1.457-.134l4.105-27.374z" stroke="#010101" stroke-linecap="round" stroke-linejoin="round" stroke-width="4"></path>
		<path d="m128.929,7.835c-2.36-.594-4.814-1.099-7.363-1.509-1.916.358-3.791.783-5.606,1.304l-4.104,27.375c3.682-.247 7.531-.204 11.543.134 .487-.043.965-.102 1.457-.134l4.073-27.17z" fill="#fff" stroke="#010101" stroke-linecap="round" stroke-linejoin="round" stroke-width="4"></path>
		<path d="m141.286,12.122c-3.794-1.729-7.909-3.166-12.356-4.286l-4.074,27.17c3.682-.247 7.531-.204 11.543.134 .487-.043.965-.102 1.457-.134l3.43-22.884z" stroke="#010101" stroke-linecap="round" stroke-linejoin="round" stroke-width="4"></path>
		<path d="m153.215,19.26c-3.557-2.741-7.528-5.134-11.93-7.139l-3.431,22.884c3.682-.247 7.531-.204 11.543.134 .487-.043.965-.102 1.457-.134l2.361-15.745z" fill="#fff" stroke="#010101" stroke-linecap="round" stroke-linejoin="round" stroke-width="4"></path>
		<path d="m153.215,19.26-2.36,15.746c3.682-.247 7.531-.204 11.543.134 1.566-.139 3.154-.239 4.78-.273-3.647-5.965-8.277-11.227-13.963-15.607z" stroke="#010101" stroke-linecap="round" stroke-linejoin="round" stroke-width="4"></path>
	


	
		<path d="m204.718,125.921c0,45.175-55.121,81.838-81.838,81.838-25.719,0-81.838-36.663-81.838-81.838s24.625-81.838 81.838-81.838c57.223,0 81.838,36.665 81.838,81.838z" fill="#010101" fill-opacity=".3137"></path>
		<path d="m198.64,85.911-1.875,2.656c.248,3.076.344,6.203.344,9.375 0,45.175-55.127,81.844-81.844,81.844-20.707,0-61.098-23.756-76.063-56.594 7.615,40.246 57.172,71.375 80.875,71.375 26.717,0 81.844-36.669 81.844-81.844 0-9.391-1.076-18.41-3.281-26.812z" fill="#010101" fill-opacity=".3137"></path>
		<path d="m235.027,4.202c-5.021-6.518-64.881.521-73.391,33.507-.078.154-.215.618-.369,1.315-.047.214-.096.447-.146.705-1.925-1.174-3.908-2.261-5.935-3.272-9.979-3.714-21.665-5.762-35.173-5.762-.895,0-1.779-.018-2.656,0-12.873.261-24.037,2.432-33.6,6.159-2.307,1.185-4.552,2.471-6.723,3.866-.045-.282-.091-.543-.136-.794-.216-1.183-.433-2.007-.537-2.216-6.647-25.772-44.629-35.682-63.329-35.687-5.237-.001-8.962.753-10.06,2.179-4.002,5.193 4.251,46.94 26.575,61.389 4.198,2.717 8.894,4.473 14.101,4.833 2.119.146 4.11.156 5.98.119-5.838,11.05-9.148,23.634-9.148,36.993 0,13.517 3.386,27.693 9.349,40.84 17.844,27.213 51.79,45.975 70.186,45.975 18.565,0 50.844-17.709 68.815-43.672 6.637-13.783 10.433-28.833 10.433-43.143 0-13.346-3.322-25.91-9.148-36.953 1.345-.012 2.771-.057 4.237-.158 5.595-.388 10.6-2.384 15.031-5.457 21.621-14.989 29.589-55.646 25.644-60.766z" fill="#fff" stroke="#010101" stroke-linecap="round" stroke-linejoin="round" stroke-width="4"></path>
	
	
		<path d="m119.63,28.536c-35.869,0-66.33,24.378-77.402,58.299-1.3,5.692-1.994,11.615-1.994,17.701 0,1.284.04,2.575.101,3.87 9.091-37.305 41.146-64.87 79.296-64.87 38.137,0 70.183,27.546 79.286,64.833 .059-1.282.1-2.561.1-3.833 0-6.169-.718-12.168-2.057-17.93-11.135-33.802-41.542-58.07-77.33-58.07z"></path>
		<path d="m119.63,58.536c-36.679,0-67.721,25.481-78.14,60.602 .512,3.053 1.174,6.108 1.98,9.148 11.985-32.058 41.555-54.75 76.159-54.75s64.16,22.682 76.15,54.728c.808-3.042 1.47-6.099 1.98-9.153-10.425-35.107-41.46-60.575-78.129-60.575z"></path>
		<path d="m119.63,88.536c-32.251,0-60.135,19.708-73.482,48.338 1.016,2.842 2.146,5.654 3.398,8.42 14.348-25.029 40.365-41.758 70.084-41.758 29.711,0 55.724,16.72 70.073,41.738 1.252-2.764 2.388-5.572 3.404-8.411-13.35-28.625-41.231-48.327-73.477-48.327z"></path>
		<path d="m119.797,118.536c-26.532,0-50.108,13.276-65.115,33.855 2.007,2.51 4.138,4.934 6.37,7.254 14.909-16.1 35.713-26.109 58.745-26.109 23.176,0 44.095,10.138 59.021,26.415 2.222-2.313 4.348-4.723 6.344-7.226-14.995-20.771-38.688-34.189-65.365-34.189z"></path>
	
	
		<path d="m118.983,144.161c-19.863,0-35.969,13.216-35.969,29.5 0,3.02.563,5.943 1.594,8.688 12.711,7.743 25.395,12.219 34.375,12.219 9.198,0 21.756-4.331 34.282-11.875 1.113-2.843 1.719-5.887 1.719-9.031 0-16.286-16.139-29.501-36.001-29.501z" fill="#fad5e5" stroke="#010101" stroke-linecap="round" stroke-linejoin="round" stroke-width="4"></path>
		<path d="m102.847,169.368c2.293,3.974 6.5,5.839 9.396,4.167s3.385-6.249 1.091-10.222-6.5-5.838-9.396-4.166-3.385,6.249-1.091,10.221z" fill="#010101"></path>
		<path d="m135.584,169.368c-2.292,3.974-6.5,5.839-9.396,4.167s-3.385-6.249-1.091-10.222 6.5-5.838 9.396-4.166 3.385,6.249 1.091,10.221z" fill="#010101"></path>
	
	
		
			<path d="m168.029,100.737c.003,12.519-10.144,22.669-22.663,22.669s-22.666-10.15-22.662-22.669 10.144-22.67 22.662-22.67 22.666,10.15 22.663,22.67z" fill="#fff" stroke="#010101" stroke-linecap="round" stroke-linejoin="round" stroke-width="4"></path>
			<path d="m147.883,104.736c.002,4.174-3.381,7.557-7.555,7.557s-7.555-3.383-7.554-7.557 3.382-7.556 7.554-7.556 7.557,3.383 7.555,7.556z" fill="#010101"></path>
		
		
			<path d="m115.295,100.737c.004,12.519-10.144,22.669-22.662,22.669s-22.667-10.15-22.663-22.669 10.144-22.67 22.663-22.67 22.666,10.15 22.662,22.67z" fill="#fff" stroke="#010101" stroke-linecap="round" stroke-linejoin="round" stroke-width="4"></path>
			<path d="m105.854,104.736c0,4.174-3.382,7.557-7.555,7.557s-7.556-3.383-7.555-7.557 3.381-7.556 7.555-7.556 7.555,3.383 7.555,7.556z" fill="#010101"></path>
		
	
	
		<path d="m65.837,59.58c-2.512-36.234-39.821-44.485-41.615-40.18s6.817,52.736 41.615,40.18z" fill="#010101" stroke="#010101" stroke-linejoin="round" stroke-width="4"></path>
		<path d="m172.161,59.58c2.511-36.234 39.822-44.485 41.615-40.18s-6.816,52.736-41.615,40.18z" fill="#010101" stroke="#010101" stroke-linejoin="round" stroke-width="4"></path>
	

</svg>
